<?xml version="1.0" encoding="UTF-8" standalone="no"?>
<!DOCTYPE svg PUBLIC "-//W3C//DTD SVG 1.1//EN" "http://www.w3.org/Graphics/SVG/1.1/DTD/svg11.dtd">
<svg width="100%" height="100%" viewBox="0 0 533 458" version="1.1" xmlns="http://www.w3.org/2000/svg" xmlns:xlink="http://www.w3.org/1999/xlink" xml:space="preserve" xmlns:serif="http://www.serif.com/" style="fill-rule:evenodd;clip-rule:evenodd;stroke-linejoin:round;stroke-miterlimit:2;">
    <g transform="matrix(0.945916,0,0,0.93024,-221.669,-272.815)">
        <rect id="Artboard1" x="234.343" y="293.273" width="563.081" height="491.302" style="fill:none;"/>
        <g id="Artboard11" serif:id="Artboard1">
            <g transform="matrix(1.05718,0,0,1.07499,-27.6092,-45.6365)">
                <path d="M480.253,327.048C507.656,324.078 534.609,324.823 561.45,327.782C596.303,331.625 630.62,338.214 662.46,353.706C682.891,363.648 701.617,376.257 718.688,391.459C740.777,411.129 757.509,434.464 765.099,462.943C774.438,497.988 771.382,532.038 749.95,562.781C732.806,587.374 708.871,599.376 679.118,600.33C664.745,600.792 650.509,599.66 636.36,597.129C631.313,596.226 627.948,594.24 625.755,588.902C618.256,570.648 603.947,558.62 587.148,549.246C573.721,541.753 559.803,535.4 544.561,532.566C540.405,531.793 539.274,530.413 540.349,525.914C541.406,521.488 540.721,516.635 540.702,511.97C540.69,509.136 541.662,507.35 544.798,507.842C560.409,510.294 571.947,501.997 583.176,493.153C586.951,490.181 590.185,486.521 593.66,483.169C595.253,481.632 596.785,480.295 599.354,481.128C608.477,484.086 617.809,482.571 627.067,482.132C633.543,481.825 640.013,480.723 646.469,480.843C655.448,481.01 662.606,484.977 666.305,493.556C671.991,506.747 674.333,520.26 669.351,534.307C667.794,538.697 666.305,543.124 665.049,547.607C662.755,555.795 664.677,563.157 670.229,569.455C674.916,574.771 681.394,575.669 686.286,572.047C691.004,568.555 692.896,559.91 689.204,554.894C686.357,551.025 687.039,548.48 689.928,545.389C694.02,541.009 695.225,535.317 695.485,529.68C696.251,513.074 695.113,496.765 686.706,481.743C683.581,476.16 679.859,471.099 675.512,466.491C673.052,463.884 672.115,461.455 674.021,458.053C677.089,452.579 677.651,446.363 678.695,440.31C680.786,428.193 689.457,424.203 699.764,430.861C706.175,435.004 710.534,440.376 710.519,448.781C710.5,459.708 715.141,468.161 724.256,474.879C731.348,480.107 734.535,488.628 737.244,496.936C739.494,503.837 741.275,510.842 740.125,519.581C748.031,503.562 748.04,488.464 743.173,473.242C735.942,450.629 723.724,431.03 706.852,414.308C702.597,410.091 697.795,406.825 691.901,405.771C687.91,405.057 686.857,402.852 686.623,399.248C686.21,392.861 679.894,386.519 673.804,386.003C665.294,385.282 660.543,390.105 660.361,399.985C660.149,411.482 659.776,422.94 656.324,434.044C656.077,434.838 655.811,435.628 655.6,436.432C652.913,446.687 647.742,453.859 636.024,455.226C628.131,456.147 620.39,458.112 611.992,457.043C612.581,452.376 613.293,447.993 613.664,443.581C615.588,420.665 607.053,401.619 591.855,385.058C584.449,376.987 575.818,370.496 566.066,365.612C563.288,364.22 562.687,362.492 562.641,359.758C562.467,349.356 556.909,344.464 546.854,346.95C536.443,349.524 526.12,348.944 515.612,348.681C496.817,348.212 477.919,347.931 459.702,353.822C454.59,355.475 449.18,355.094 444.111,357.05C438.303,359.29 434.116,363.675 434.436,368.294C434.863,374.462 440.478,380.197 446.826,380.841C454.926,381.662 462.72,379.379 470.567,378.109C493.445,374.405 516.292,373.183 538.935,379.006C556.552,383.537 572.347,392.239 581.613,408.158C595.546,432.095 593.321,455.11 571.026,473.271C563.557,479.355 554.672,482.751 544.524,481.405C541.201,480.965 539.288,480.23 538.318,476.465C535.491,465.491 524.584,460.094 516.128,465.009C510.358,468.363 507.856,475.104 511.229,480.799C515.66,488.283 517.767,496.224 518.901,504.733C519.718,510.865 518.778,516.618 517.508,522.483C516.949,525.063 515.525,525.763 513.192,525.222C506.073,523.574 498.959,521.908 491.846,520.233C488.434,519.429 485.862,517.389 483.848,514.606C469.249,494.423 463.432,472.2 468.763,447.589C471.086,436.867 475.869,427.211 485.731,421.6C494.782,416.451 504.748,416.31 514.709,419.266C515.342,419.454 515.925,419.808 516.541,420.063C523.591,422.978 528.273,422.286 531.441,417.867C535.124,412.728 534.509,404.654 529.991,399.863C527.292,397 523.958,394.97 520.111,394.347C504.231,391.773 488.627,391.427 474.181,400.341C460.766,408.619 452.879,420.963 447.38,435.325C442.345,448.476 442.835,462.069 443.058,475.756C443.256,487.878 446.942,498.952 451.849,509.781C452.261,510.691 452.751,511.571 453.1,512.504C454.886,517.289 454.372,518.395 449.245,519.15C440.377,520.455 431.468,521.479 422.585,522.685C420.267,523 418.984,522.13 417.871,520.055C407.159,500.098 402.374,479.192 406.423,456.501C409.299,440.385 407.116,424.703 400.523,409.673C399.799,408.023 399.185,406.493 399.763,404.444C402.235,395.691 397.451,387.874 388.429,385.495C379.739,383.203 373.018,385.588 367.664,392.931C367.046,393.778 366.489,394.436 365.345,394.551C347.535,396.342 334.259,406.538 322.369,418.639C309.324,431.915 298.715,447.12 291.65,464.405C286.357,477.356 282.98,490.907 281.469,504.931C279.03,527.554 279.554,549.918 287.351,571.515C292.462,585.673 301.019,597.659 312.745,607.324C319.975,613.284 328.198,614.05 336.802,612.238C342.702,610.995 347.216,607.194 348.879,601.357C354.658,581.077 369.159,568.653 386.532,558.765C401.705,550.129 418.264,546.382 435.514,544.54C451.479,542.836 467.402,542.321 483.361,543.715C502.422,545.38 521.228,548.562 539.603,554.073C555.599,558.87 571.373,564.189 585.046,574.159C598.346,583.857 610.123,595.046 618.042,609.754C633.665,638.768 622.911,691.751 574.503,702.432C561.454,705.311 548.297,704.082 535.18,704.31C516.682,704.631 503.58,715.152 499.363,733.26C498.173,738.371 498.355,743.5 498.132,748.643C497.973,752.294 497.621,755.938 497.327,759.582C497.1,762.402 495.535,764.522 492.881,764.955C488.117,765.733 483.237,765.824 478.474,764.843C475.89,764.31 474.165,762.635 473.599,759.782C473.044,756.99 472.673,754.226 472.678,751.374C472.708,731.207 472.602,711.04 472.743,690.875C472.772,686.708 471.426,684.614 467.12,684.599C455.005,684.556 448.56,678.567 447.662,666.632C447.133,659.603 446.935,659.185 439.9,660.363C427.603,662.422 415.491,665.503 403.066,666.908C361.265,671.635 325.598,660.195 297.098,628.12C277.723,606.314 266.095,581.128 260.578,552.715C254.976,523.862 256.511,495.361 265.142,467.436C271.091,448.188 281.459,431.082 294.017,415.308C315.509,388.313 343.783,370.788 374.514,356.282C398.923,344.761 424.317,336.632 450.678,331.37C460.287,329.452 469.96,327.651 480.253,327.048M494.16,600.359C477.566,597.096 460.768,596.925 443.972,597.429C435.557,597.681 429.967,607.003 433.012,614.831C435.27,620.637 439.994,622.749 445.702,622.633C456.173,622.421 466.633,622.245 477.104,622.69C491.63,623.309 504.893,627.512 516.707,636.104C525.049,642.171 527.806,650.421 525.837,660.249C524.739,665.732 526.018,670.514 528.937,674.941C533.614,682.032 542.708,682.251 547.908,675.506C549.542,673.387 550.924,671.061 551.514,668.43C554.773,653.918 551.192,641.069 541.618,629.901C529.12,615.323 513.289,605.903 494.16,600.359M724.834,525.525C723.76,522.247 725.428,518.883 724.554,515.619C723.879,513.097 723.56,509.659 720.19,509.811C716.505,509.976 717.104,513.48 716.968,516.052C716.907,517.205 716.923,518.425 717.233,519.522C719.023,525.862 717.266,531.646 714.82,537.43C713.466,540.63 712.439,543.988 711.5,547.341C710.625,550.465 711.442,553.369 713.858,555.535C716.266,557.695 718.84,556.594 721.291,555.364C723.521,554.245 725.802,553.209 727.948,551.945C735.67,547.399 736.653,540.163 730.43,533.847C728.218,531.602 725.641,529.648 724.834,525.525Z" style="fill-rule:nonzero;"/>
            </g>
            <g transform="matrix(1.05718,0,0,1.07499,-27.6092,-45.6365)">
                <path d="M368.379,543.405C355.646,551.895 344.775,561.772 336.421,574.289C334.366,577.367 332.779,580.632 331.445,584.042C330.205,587.213 328.72,587.319 325.794,585.531C312.723,577.546 309.662,564.114 306.874,550.769C304.046,537.237 303.893,523.471 304.557,509.629C305.886,481.899 315.762,457.917 334.75,437.717C340.466,431.635 346.809,426.301 354.453,422.663C358.156,420.901 362.072,420.202 366.051,420.076C373.912,419.828 378.803,424.148 381.236,433.109C382.785,438.816 382.847,444.677 382.294,450.462C381.091,463.044 379.936,475.613 381.398,488.236C382.616,498.749 386.814,508.414 390.317,518.267C390.705,519.36 391.257,520.395 391.706,521.467C395.152,529.698 395.128,529.652 386.677,533.524C380.475,536.365 374.263,539.208 368.379,543.405Z" style="fill-rule:nonzero;"/>
            </g>
        </g>
    </g>
</svg>
