<svg width="322" height="63" viewBox="0 0 322 63" fill="none" xmlns="http://www.w3.org/2000/svg">
<g clip-path="url(#clip0_4530_37772)">
<path d="M30.6191 49.1083C40.3995 49.1083 48.3281 41.0825 48.3281 31.1822C48.3281 21.2819 40.3995 13.2561 30.6191 13.2561C20.8387 13.2561 12.9102 21.2819 12.9102 31.1822C12.9102 41.0825 20.8387 49.1083 30.6191 49.1083Z" fill="white"/>
<path d="M94.3012 8.28503C86.7116 8.28503 75.1041 4.66968 75.1041 4.66968C75.1041 4.66968 72.5742 11.2978 72.5742 20.3362C72.5742 29.3746 80.015 53.1756 95.0452 59.2012C95.0452 59.2012 116.475 45.493 116.475 21.5413C116.475 7.23055 114.391 4.66968 114.391 4.66968C114.391 4.66968 101.891 8.28503 94.3012 8.28503V8.28503Z" fill="white"/>
<path d="M138.504 26.8138V0.903838H148.177C152.79 0.602558 157.403 2.56087 157.403 7.68262C157.403 10.5448 155.469 12.5031 152.939 13.4069C156.213 14.1601 158.594 16.4197 158.594 20.1857C158.594 25.3074 152.195 27.2658 148.326 26.9645H138.504V26.8138V26.8138ZM148.326 11.298C150.707 11.298 151.897 10.3941 151.897 8.28518C151.897 6.17622 150.558 5.27239 148.326 5.27239H144.01V11.4486H148.326V11.298ZM148.326 22.4453C150.856 22.4453 152.641 21.9934 152.641 18.9806C152.641 15.9678 150.856 15.5159 148.326 15.5159H144.01V22.4453H148.326ZM167.374 0.903838V26.8138H162.017V0.903838H167.374ZM183.595 24.5543C182.404 26.2113 180.767 27.2658 178.089 27.2658C176.303 27.2658 172.88 25.91 172.285 23.3491C171.987 22.2947 171.987 21.0895 171.987 20.487V8.7371H177.345V19.5831C177.345 21.5415 177.94 23.8011 180.47 23.8011C182.107 23.8011 183.595 22.2947 183.595 19.5831V8.7371H188.952V23.4998C188.952 24.5543 189.101 25.6087 189.101 26.6632H183.744L183.595 24.5543V24.5543ZM198.327 19.2819C198.327 21.6921 198.625 23.8011 201.453 23.8011C203.238 23.8011 204.28 23.0479 204.726 21.3908H209.489C209.042 25.91 205.619 27.2658 201.453 27.2658C195.351 27.2658 192.821 23.8011 192.821 17.7755C192.821 12.3524 195.946 8.13454 201.453 8.13454C204.726 8.13454 207.554 9.33965 209.042 12.5031C209.489 13.5576 209.786 14.612 209.935 15.6665C210.084 16.721 210.084 17.9261 210.084 19.1312H198.327V19.2819V19.2819ZM204.578 15.6665C204.578 13.7082 203.982 11.9005 201.453 11.9005C199.071 11.9005 198.476 13.7082 198.327 15.6665H204.578ZM228.09 9.18901C228.09 6.4775 226.453 4.21791 223.179 4.21791C219.31 4.21791 218.269 10.0929 218.269 13.7082C218.269 17.3236 219.31 23.1985 223.179 23.1985C226.453 23.1985 228.09 20.9389 228.09 18.2274H233.894C233.596 24.7049 228.983 27.1151 223.179 27.1151C215.739 27.1151 212.465 21.2402 212.465 13.5576C212.465 5.87494 215.739 0 223.179 0C229.132 0 233.745 2.41023 233.894 8.88774H228.09V9.18901ZM241.633 8.7371L241.781 12.0512C242.972 9.18901 245.204 8.43582 247.883 8.58646V13.4069H245.502C244.609 13.4069 243.418 14.0095 242.972 14.7627C242.377 15.8172 242.228 16.721 242.228 17.9261V26.8138H236.87V12.3524C236.87 11.5992 236.722 10.0929 236.722 8.7371H241.633V8.7371ZM259.49 27.4164C253.686 27.4164 250.115 23.4998 250.115 17.7755C250.115 12.0512 253.538 8.13454 259.49 8.13454C265.443 8.13454 268.866 12.0512 268.866 17.7755C268.866 23.4998 265.294 27.4164 259.49 27.4164ZM259.49 23.8011C262.764 23.8011 263.359 20.6376 263.359 17.7755C263.359 14.9133 262.764 11.7499 259.49 11.7499C256.216 11.7499 255.621 14.9133 255.621 17.7755C255.77 20.6376 256.216 23.8011 259.49 23.8011ZM281.664 13.5576C281.664 12.3524 280.473 11.7499 279.283 11.7499C277.794 11.7499 277.199 12.2018 277.199 13.4069C277.199 16.2691 287.467 14.612 287.467 21.3908C287.467 25.3074 282.705 27.2658 279.431 27.2658C275.265 27.2658 271.693 25.6087 271.544 21.5415H276.455C276.604 22.8972 277.794 23.8011 279.431 23.8011C280.92 23.8011 281.961 23.1985 281.961 21.8427C281.961 20.3363 279.431 19.7338 278.39 19.5831C274.967 18.8299 271.842 17.9261 271.842 13.8588C271.842 10.0929 276.306 8.43582 279.431 8.43582C283.152 8.43582 286.426 9.79157 286.575 13.8588H281.664V13.5576V13.5576ZM299.373 13.5576C299.373 12.3524 298.182 11.7499 296.992 11.7499C295.503 11.7499 294.908 12.2018 294.908 13.4069C294.908 16.2691 305.176 14.612 305.176 21.3908C305.176 25.3074 300.414 27.2658 297.14 27.2658C292.974 27.2658 289.402 25.6087 289.253 21.5415H294.164C294.313 22.8972 295.503 23.8011 297.14 23.8011C298.629 23.8011 299.67 23.1985 299.67 21.8427C299.67 20.3363 297.14 19.7338 296.099 19.5831C292.676 18.8299 289.551 17.9261 289.551 13.8588C289.551 10.0929 294.015 8.43582 297.14 8.43582C300.861 8.43582 304.135 9.79157 304.283 13.8588H299.373V13.5576V13.5576ZM138.504 62.0635V36.1535H148.177C152.79 35.8522 157.403 37.8105 157.403 42.9323C157.403 45.7944 155.469 47.7527 152.939 48.6566C156.213 49.4098 158.594 51.6694 158.594 55.4354C158.594 60.5571 152.195 62.5154 148.326 62.2141H138.504V62.0635V62.0635ZM148.326 46.5476C150.707 46.5476 151.897 45.6438 151.897 43.5348C151.897 41.4259 150.558 40.522 148.326 40.522H144.01V46.6983L148.326 46.5476V46.5476ZM148.326 57.695C150.856 57.695 152.641 57.243 152.641 54.2302C152.641 51.2175 150.856 50.7655 148.326 50.7655H144.01V57.695H148.326V57.695ZM167.374 36.1535V62.0635H162.017V36.1535H167.374V36.1535ZM183.595 59.8039C182.404 61.461 180.767 62.5154 178.089 62.5154C176.303 62.5154 172.88 61.1597 172.285 58.4482C171.987 57.3937 171.987 56.1886 171.987 55.586V43.8361H177.345V54.8328C177.345 56.7911 177.94 59.0507 180.47 59.0507C182.107 59.0507 183.595 57.5443 183.595 54.8328V43.9868H188.952V58.7494C188.952 59.8039 189.101 60.8584 189.101 61.9129H183.744L183.595 59.8039V59.8039ZM198.327 54.5315C198.327 56.9418 198.625 59.0507 201.453 59.0507C203.238 59.0507 204.28 58.2975 204.726 56.6405H209.489C209.042 61.1597 205.619 62.5154 201.453 62.5154C195.351 62.5154 192.821 59.0507 192.821 53.0251C192.821 47.6021 195.946 43.3842 201.453 43.3842C204.726 43.3842 207.554 44.5893 209.042 47.7527C209.489 48.8072 209.786 49.8617 209.935 50.9162C210.084 51.9707 210.084 53.1758 210.084 54.3809L198.327 54.5315V54.5315ZM204.578 50.9162C204.578 48.9579 203.982 47.1502 201.453 47.1502C199.071 47.1502 198.476 48.9579 198.327 50.9162H204.578ZM227.346 43.5348C227.197 40.974 225.709 39.6182 223.031 39.6182C220.947 39.6182 219.013 40.6727 219.013 42.9323C219.013 45.7944 221.543 46.0957 223.775 46.5476C227.644 47.6021 233.448 48.6566 233.448 53.929C233.448 60.4065 227.942 62.6661 222.435 62.6661C216.632 62.6661 212.465 60.4065 212.614 53.7783H218.269C218.12 56.6405 219.757 58.5988 222.584 58.5988C224.816 58.5988 227.644 57.8456 227.644 55.1341C227.644 52.1213 223.924 51.82 221.84 51.2175C218.269 50.3136 213.358 48.6566 213.358 43.9868C213.358 38.1118 218.715 35.4003 224.072 35.4003C228.983 35.4003 232.852 38.1118 232.852 43.3842L227.346 43.5348V43.5348ZM237.168 62.0635V36.1535H242.525V46.2464C243.567 44.5893 245.353 43.5348 248.032 43.5348C249.817 43.5348 253.24 44.8906 253.835 47.4515C254.133 48.5059 254.133 49.7111 254.133 50.3136V62.0635H248.924V51.2175C248.924 49.2591 248.329 47.1502 245.799 47.1502C244.162 47.1502 242.674 48.6566 242.674 51.2175V62.0635H237.168V62.0635ZM264.401 36.1535V40.8233H258.746V36.1535H264.401ZM264.104 43.9868V62.0635H258.746V43.9868H264.104ZM273.479 54.5315C273.479 56.9418 273.776 59.0507 276.604 59.0507C278.39 59.0507 279.431 58.2975 279.878 56.6405H284.64C284.194 61.1597 280.771 62.5154 276.604 62.5154C270.503 62.5154 267.973 59.0507 267.973 53.0251C267.973 47.6021 271.098 43.3842 276.604 43.3842C279.878 43.3842 282.705 44.5893 284.194 47.7527C284.64 48.8072 284.938 49.8617 285.086 50.9162C285.235 51.9707 285.235 53.1758 285.235 54.3809L273.479 54.5315V54.5315ZM279.58 50.9162C279.58 48.9579 278.985 47.1502 276.455 47.1502C274.074 47.1502 273.479 48.9579 273.33 50.9162H279.58ZM293.718 36.1535V62.0635H288.36V36.1535H293.718V36.1535ZM310.683 36.1535H316.04V58.5988C316.04 59.8039 316.189 61.009 316.189 62.2141H310.831C310.831 61.3103 310.683 60.5571 310.683 59.6533C309.492 61.7622 307.557 62.8167 305.176 62.8167C299.968 62.8167 297.438 57.8456 297.438 53.1758C297.438 48.5059 300.265 43.5348 305.772 43.5348C307.557 43.5348 309.492 44.5893 310.534 46.0957L310.683 36.1535V36.1535ZM306.813 59.0507C309.641 59.0507 310.683 55.586 310.683 53.0251C310.683 50.6149 309.79 46.9996 306.813 46.9996C303.391 46.9996 302.944 50.163 302.944 53.0251C302.944 55.7366 303.391 59.0507 306.813 59.0507ZM307.706 26.8138C306.813 26.8138 306.069 26.0606 306.069 25.1568C306.069 24.253 306.813 23.4998 307.706 23.4998C308.599 23.4998 309.343 24.253 309.343 25.1568C309.343 26.0606 308.748 26.8138 307.706 26.8138ZM307.706 23.0479C306.665 23.0479 305.772 23.9517 305.772 25.0062C305.772 26.0606 306.665 26.9645 307.706 26.9645C308.748 26.9645 309.641 26.0606 309.641 25.0062C309.641 23.9517 308.748 23.0479 307.706 23.0479Z" fill="#818181"/>
<path d="M307.705 25.0064H307.259V24.2532H307.854C308.151 24.2532 308.449 24.2532 308.449 24.5545C308.449 25.0064 308.003 25.0064 307.705 25.0064ZM308.747 24.5545C308.747 24.1025 308.598 23.9519 308.003 23.9519H306.961V26.2115H307.259V25.157H307.705L308.449 26.2115H308.747L308.151 25.157C308.449 25.157 308.747 25.0064 308.747 24.5545ZM319.164 61.9131C318.271 61.9131 317.527 61.1599 317.527 60.256C317.527 59.3522 318.271 58.599 319.164 58.599C320.057 58.599 320.801 59.3522 320.801 60.256C320.801 61.1599 320.057 61.9131 319.164 61.9131ZM319.164 58.1471C318.122 58.1471 317.229 59.0509 317.229 60.1054C317.229 61.1599 318.122 62.0637 319.164 62.0637C320.205 62.0637 321.098 61.1599 321.098 60.1054C321.098 59.0509 320.205 58.1471 319.164 58.1471Z" fill="#818181"/>
<path d="M319.021 60.1051H318.575V59.3519H319.17C319.467 59.3519 319.765 59.3519 319.765 59.6532C319.765 60.1051 319.467 60.1051 319.021 60.1051ZM320.212 59.6532C320.212 59.2013 320.063 59.0507 319.467 59.0507H318.426V61.3103H318.723V60.2558H319.17L319.765 61.3103H320.063L319.467 60.2558C319.914 60.2558 320.212 60.1051 320.212 59.6532Z" fill="#818181"/>
<path d="M57.5438 55.4351C55.6092 55.4351 54.1211 56.9415 54.1211 58.8998C54.1211 60.8581 55.6092 62.3645 57.5438 62.3645C59.3296 62.3645 60.9666 60.8581 60.9666 58.8998C60.9666 56.9415 59.4784 55.4351 57.5438 55.4351ZM57.5438 61.7619C55.9069 61.7619 54.7164 60.5568 54.7164 58.8998C54.7164 57.2427 55.9069 56.0376 57.5438 56.0376C59.1808 56.0376 60.3713 57.2427 60.3713 58.8998C60.3713 60.5568 59.3296 61.7619 57.5438 61.7619Z" fill="#818181"/>
<path d="M59.3317 57.9964C59.3317 57.2432 59.034 56.942 57.9923 56.942H56.3554V60.8586H56.8018V59.2016H57.6947L58.7364 60.8586H59.3317L58.1412 59.2016C58.8852 59.0509 59.3317 58.7496 59.3317 57.9964ZM57.5459 58.599H56.8018V57.3939H57.8435C58.29 57.3939 58.7364 57.3939 58.7364 57.9964C58.8852 58.7496 57.9923 58.599 57.5459 58.599V58.599ZM30.7592 35.8524C30.66 35.8524 30.5608 35.9026 30.4616 36.0031L24.8067 44.7402C26.5924 45.4934 28.527 45.9453 30.6104 45.9453C32.6938 45.9453 34.6284 45.4934 36.4142 44.7402L30.7592 36.0031C30.9081 35.8524 30.7592 35.8524 30.7592 35.8524V35.8524ZM25.2531 28.6217L16.7707 27.8685C16.473 28.923 16.3242 30.1281 16.3242 31.3332C16.3242 34.9486 17.6636 38.2627 19.747 40.8235L25.6995 29.3749C25.9972 29.0736 25.8484 28.7724 25.2531 28.6217V28.6217Z" fill="#818181"/>
<path d="M44.1578 17.6248V0.602539H17.2223V17.6248H0.40625V44.8906H17.2223V61.9128H44.1578V44.8906H60.9738V17.6248H44.1578V17.6248ZM30.7645 14.4614C37.4611 14.4614 43.2649 18.378 45.7947 24.253H33.8896C32.2526 24.253 31.5085 23.1985 31.3597 22.4453C31.3597 21.5414 31.5085 21.2402 32.2526 20.1857C33.1455 18.9806 32.5502 16.8716 30.6156 16.721C28.681 16.721 28.0858 18.9806 28.9787 20.1857C29.7228 21.2402 29.8716 21.5414 29.8716 22.4453C29.8716 23.1985 29.1275 24.253 27.3417 24.253H15.4365C18.264 18.5287 24.0678 14.4614 30.7645 14.4614V14.4614ZM14.0972 31.333C14.0972 29.2241 14.5436 27.2657 15.1389 25.4581L26.3 26.5125C28.3834 26.8138 28.681 28.9228 28.0858 30.1279L20.4962 44.7399C16.6271 41.5765 14.0972 36.756 14.0972 31.333ZM39.8422 45.4931C37.1635 47.3008 34.0384 48.2046 30.6156 48.2046C27.1929 48.2046 24.0678 47.1502 21.3891 45.4931L29.5739 33.2913C30.1692 32.3875 31.0621 32.5381 31.6573 33.2913L39.8422 45.4931ZM41.0327 44.5893L33.4431 30.1279C32.8479 28.9228 33.1455 26.8138 35.2289 26.5125L46.39 25.4581C47.1341 27.2657 47.4317 29.3747 47.4317 31.333C47.4317 36.756 44.9019 41.5765 41.0327 44.5893Z" fill="#818181"/>
<path d="M41.6293 21.8429C39.8435 19.734 37.4625 18.0769 34.7838 17.3237C35.6767 18.6795 34.9326 20.6378 34.1886 21.5416C34.0397 21.6923 34.1886 21.8429 34.1886 21.8429H41.6293V21.8429ZM36.272 28.6217C35.6767 28.6217 35.6767 28.923 35.8255 29.2243L41.7781 40.6729C43.8615 38.112 45.2008 34.7979 45.2008 31.1826C45.2008 29.9775 45.052 28.7723 44.7544 27.7179L36.272 28.6217ZM26.7478 17.4744C24.0692 18.2276 21.6881 19.8846 19.9023 21.9936H27.3431C27.4919 21.9936 27.4919 21.8429 27.3431 21.6923C26.599 20.6378 25.8549 18.8301 26.7478 17.4744V17.4744Z" fill="#818181"/>
<path d="M115.141 0.602661C108.594 3.91673 102.046 5.72441 94.4561 5.72441C86.8666 5.72441 80.3187 3.91673 73.7709 0.602661C69.4552 9.18912 68.86 23.048 72.5803 34.6472C76.1519 45.7945 83.1462 56.038 94.4561 62.3649C105.915 56.038 112.76 45.7945 116.332 34.6472C120.201 23.048 119.457 9.18912 115.141 0.602661V0.602661ZM112.165 33.2915C108.891 42.7817 103.98 51.2176 94.6049 57.0925C85.2296 51.2176 80.1699 42.7817 77.0448 33.2915C74.2173 24.8556 73.4732 14.9134 76.5983 7.2308C81.3604 8.88784 84.0391 9.33976 86.5689 9.79168C88.95 10.2436 91.0334 10.3942 94.6049 10.3942C98.1765 10.3942 100.26 10.093 102.641 9.79168C105.171 9.33976 107.998 8.88784 112.612 7.2308C115.588 14.9134 114.993 24.8556 112.165 33.2915V33.2915Z" fill="#818181"/>
<path d="M102.638 11.9008C99.9596 12.2021 97.1321 12.5034 94.4535 12.5034C91.7748 12.5034 89.0961 12.2021 86.2686 11.9008C83.59 11.4489 80.9113 10.8463 78.0838 10.0931C76.1492 15.8174 76.4469 23.0481 78.0838 29.375C80.9113 41.4262 88.2032 50.6152 94.4535 54.6825C100.852 50.6152 107.996 41.4262 110.823 29.375C112.311 22.8975 112.758 15.8174 110.823 10.0931C107.996 10.8463 105.466 11.5995 102.638 11.9008V11.9008ZM92.9653 49.1088C92.8165 49.7113 93.1141 50.0126 93.1141 50.3139C92.9653 50.7658 92.6677 50.6152 92.5189 50.3139C92.2212 49.862 92.0724 49.5607 92.0724 48.8075C91.9236 47.6024 92.5189 47.1505 92.8165 46.8492C93.1141 46.5479 93.4118 46.3973 93.4118 46.3973L93.5606 48.3556C93.2629 48.3556 92.9653 48.5062 92.9653 49.1088V49.1088ZM95.4952 51.0671C95.4952 51.3684 95.3463 51.6697 94.7511 51.6697C94.3046 51.6697 94.007 51.519 94.007 50.9165C93.8582 48.5062 93.8582 44.1377 93.8582 44.1377C93.8582 44.1377 94.4535 44.2883 94.8999 44.5896C95.0487 44.5896 95.3463 44.8909 95.644 45.1922C95.644 45.3428 95.7928 45.3428 95.7928 45.4934C95.644 47.1505 95.4952 50.3139 95.4952 51.0671V51.0671ZM97.4297 46.5479C96.8345 46.9998 96.2392 47.1505 96.2392 47.1505V45.3428C96.2392 45.3428 96.388 45.1922 96.388 44.8909C96.2392 44.5896 95.0487 43.6858 94.4535 43.3845C93.7094 43.0832 92.8165 42.7819 92.2212 42.6313C90.7331 42.0287 90.1378 40.673 90.7331 39.1666C90.8819 38.564 91.626 38.2627 91.9236 38.1121C92.2212 37.9615 92.8165 37.8108 92.8165 37.8108L92.9653 39.9198C92.9653 39.9198 92.8165 39.9198 92.6677 40.2211C92.5189 40.5223 92.8165 40.8236 92.9653 40.8236C94.007 41.2755 95.3463 41.8781 96.388 42.4807C97.7274 43.2339 98.1738 43.8364 98.1738 44.8909C98.3226 45.6441 97.8762 46.2466 97.4297 46.5479ZM93.7094 36.7563C94.7511 36.907 95.0487 36.907 95.9416 37.0576L95.7928 41.2755L94.8999 40.8236L94.007 40.3717L93.7094 36.7563ZM99.662 37.6602C99.5132 38.4134 99.0667 39.0159 98.3226 39.4679C97.5786 39.9198 96.6857 39.9198 96.6857 39.9198V37.3589C96.6857 37.3589 96.8345 37.3589 96.9833 37.2083C97.1321 37.0576 97.1321 36.907 97.1321 36.7563C97.1321 36.6057 96.9833 36.4551 96.8345 36.3044C96.5369 36.1538 96.2392 36.1538 96.0904 36.1538L92.5189 35.7019C90.4355 35.4006 88.7985 34.0448 88.9473 31.9359C89.0961 30.5801 90.4355 30.1282 91.4772 29.6763L92.2212 31.1827C92.3701 31.7852 92.5189 32.0865 92.5189 32.0865C92.5189 32.0865 92.0724 32.2372 92.0724 32.5384C92.0724 32.8397 92.5189 32.9904 92.6677 32.9904C94.1558 33.141 96.2392 33.4423 97.2809 33.8942C98.025 34.1955 98.6203 34.4968 99.0667 35.0993C99.662 36.1538 99.8108 36.907 99.662 37.6602V37.6602ZM92.8165 27.8686C92.8165 27.8686 93.2629 27.8686 94.6023 28.0193C95.4952 28.0193 96.2392 28.3205 96.2392 28.3205L96.0904 32.8397C95.0487 32.6891 94.4535 32.5384 93.5606 32.3878C93.2629 30.7308 92.8165 30.1282 92.2212 28.9231C92.0724 28.6218 92.2212 28.4712 92.2212 28.4712C92.3701 28.3205 92.9653 28.1699 92.9653 28.1699L92.8165 27.8686V27.8686ZM96.8345 32.3878C96.8345 32.3878 96.9833 30.2788 96.9833 29.2244C97.5786 29.0737 97.7274 28.4712 97.4297 28.0193C97.2809 27.718 96.8345 27.5673 96.6857 27.5673C95.4952 27.2661 94.4535 27.2661 93.2629 27.1154C92.2212 26.9648 91.3283 26.8141 90.4355 26.6635C88.5009 26.2116 86.7151 25.1571 85.8222 23.3494C84.7805 21.0898 85.6734 18.2277 87.9056 17.1732C89.5426 16.2694 91.3283 16.42 92.9653 17.1732C93.5606 17.3238 93.8582 17.9264 94.1558 18.3783C94.3046 18.529 94.6023 18.6796 94.7511 18.9809C94.8999 19.1315 94.6023 19.1315 94.6023 19.1315C94.3046 19.2822 92.9653 19.2822 92.6677 19.1315H90.8819C91.3283 19.4328 91.9236 19.7341 92.5189 20.0354C92.8165 20.186 93.1141 20.186 93.4118 20.3366C93.5606 20.3366 93.8582 20.4873 93.8582 20.6379C93.8582 20.7886 93.5606 20.7886 93.2629 20.9392C92.8165 21.0898 92.2212 21.0898 91.626 20.9392C90.7331 20.7886 90.2866 20.186 89.6914 20.4873C89.2449 20.7886 89.2449 21.2405 89.3938 21.843C89.5426 22.7469 90.4355 23.0481 91.1795 23.3494C93.7094 24.2533 96.5369 23.6507 98.9179 25.0065C99.8108 25.4584 101.001 26.5129 101.15 27.5673C101.894 31.7852 96.8345 32.3878 96.8345 32.3878V32.3878ZM101.299 18.3783C101.15 18.8302 101.001 18.8302 100.704 19.1315C100.108 19.7341 99.2155 20.3366 98.3226 21.0898C97.7274 21.5417 97.2809 21.843 96.8345 22.5962C96.6857 22.7469 96.5369 23.0481 96.5369 23.0481C95.0487 22.7469 93.7094 22.7469 92.5189 22.4456V21.2405C92.5189 21.2405 93.8582 21.2405 94.007 20.3366C94.007 20.3366 94.007 20.0354 93.8582 19.8847C93.7094 19.7341 93.2629 19.5834 93.1141 19.5834C94.1558 19.7341 95.1975 20.186 96.2392 20.6379C96.2392 20.4873 96.0904 20.0354 96.0904 20.0354C95.9416 19.8847 95.7928 19.7341 95.3463 19.5834C94.7511 19.4328 93.1141 19.2822 93.1141 19.2822H94.4535C94.7511 19.2822 95.1975 19.1315 95.1975 18.9809C95.3463 18.8302 95.1975 18.529 94.8999 18.2277L94.4535 17.7758C94.3046 17.4745 94.007 17.1732 93.8582 16.8719C93.5606 16.42 92.37 15.9681 92.37 15.9681C92.37 15.9681 92.2212 15.2149 92.5189 14.9136C92.6677 14.6123 93.2629 14.6123 93.4118 14.763C94.1558 15.2149 95.1975 15.6668 96.2392 15.9681C96.4377 16.0685 96.5369 16.2694 96.5369 16.5706C96.6857 17.3238 96.388 18.3783 96.5369 18.8302C96.5369 18.9809 96.8345 18.9809 96.8345 18.9809C97.8762 18.3783 98.4715 17.4745 99.5132 17.0226C100.257 16.7213 101.597 17.3238 101.299 18.3783V18.3783ZM115.436 55.5863C113.651 55.5863 112.162 57.0927 112.162 58.9004C112.162 60.708 113.651 62.2144 115.436 62.2144C117.222 62.2144 118.71 60.708 118.71 58.9004C118.71 57.0927 117.222 55.5863 115.436 55.5863ZM115.436 61.7625C113.799 61.7625 112.609 60.5574 112.609 58.9004C112.609 57.2433 113.799 56.0382 115.436 56.0382C117.073 56.0382 118.264 57.2433 118.264 58.9004C118.264 60.5574 117.073 61.7625 115.436 61.7625Z" fill="#818181"/>
<path d="M117.227 57.9964C117.227 57.2432 116.93 56.9419 115.888 56.9419H114.251V60.8586H114.697V59.2015H115.442L116.483 60.8586H117.078L115.888 59.2015C116.632 59.0509 117.227 58.7496 117.227 57.9964V57.9964ZM115.442 58.7496H114.697V57.5445H115.739C116.186 57.5445 116.632 57.5445 116.632 58.1471C116.632 58.7496 115.888 58.7496 115.442 58.7496ZM91.3335 17.3237C91.6312 17.625 91.6312 17.9263 92.0776 17.9263C92.3752 17.9263 92.5241 17.7757 92.6729 17.625H92.9705C92.5241 17.1731 91.4824 17.1731 90.7383 17.0225C91.0359 17.3237 91.1847 17.1731 91.3335 17.3237Z" fill="#818181"/>
</g>
<defs>
<clipPath id="clip0_4530_37772">
<rect width="320.696" height="62.8167" fill="white" transform="translate(0.40625)"/>
</clipPath>
</defs>
</svg>
