<?xml version="1.0" encoding="UTF-8" standalone="no"?>
<!DOCTYPE svg PUBLIC "-//W3C//DTD SVG 1.1//EN" "http://www.w3.org/Graphics/SVG/1.1/DTD/svg11.dtd">
<svg width="100%" height="100%" viewBox="0 0 953 267" version="1.1" xmlns="http://www.w3.org/2000/svg" xmlns:xlink="http://www.w3.org/1999/xlink" xml:space="preserve" xmlns:serif="http://www.serif.com/" style="fill-rule:evenodd;clip-rule:evenodd;stroke-linejoin:round;stroke-miterlimit:2;">
    <g transform="matrix(1,0,0,1,-715.345,-1370.43)">
        <g transform="matrix(1,0,0,1,-13.1274,38.1941)">
            <g>
                <g transform="matrix(-0.70249,0,0,0.587298,1205.6,1157.19)">
                    <path d="M516.67,298.92C567.98,298.13 615.07,320.28 646.26,360.8C646.576,361.212 646.546,361.795 646.19,362.16L639.41,369.17L630.56,378.54C630.32,378.787 630.293,379.06 630.48,379.36C631.727,381.313 632.99,383.247 634.27,385.16C645.197,401.52 652.037,419.44 654.79,438.92C657.24,456.3 644.67,468.03 656.74,485.27C662.62,493.67 668.353,501.12 673.94,507.62C678.06,512.4 681.3,520.4 674.75,524.25C669.36,527.42 659.9,527.64 660.26,536.78C660.4,540.487 661.12,544.063 662.42,547.51C664.21,552.26 654.42,557.91 651.09,559.67C650.904,559.766 650.786,559.958 650.786,560.168C650.786,560.389 650.918,560.591 651.12,560.68C654.63,562.24 663.2,565.29 663.09,570.12C662.95,576.59 648.43,575.06 651.24,587.75C652.98,595.61 655.4,605.44 651.18,613.35C650.167,614.423 649.283,615.21 648.53,615.71C648.455,615.751 648.362,615.771 648.268,615.768C648.038,615.761 647.853,615.615 647.858,615.445C647.86,615.377 647.892,615.312 647.95,615.26C648.157,615.113 648.267,614.953 648.28,614.78C648.293,614.54 648.21,614.5 648.03,614.66L643.63,618.74C643.56,618.804 643.469,618.839 643.374,618.839C643.166,618.839 642.994,618.668 642.994,618.459C642.994,618.422 642.999,618.385 643.01,618.35L643.17,617.86C643.257,617.587 643.193,617.353 642.98,617.16L640.21,614.65C639.963,614.43 639.877,614.16 639.95,613.84L640.28,612.26C640.347,611.967 640.277,611.71 640.07,611.49C639.31,610.677 638.377,610.2 637.27,610.06C636.95,610.02 636.723,609.853 636.59,609.56C635.3,606.81 632.73,604.42 632.66,602.24C632.647,601.913 632.543,601.62 632.35,601.36C630.717,599.18 629.637,596.773 629.11,594.14C627.94,588.38 623.82,584.84 621.26,579.94C621.107,579.647 620.877,579.433 620.57,579.3C618.47,578.39 618.36,576.02 617.53,574.73C615.05,570.83 612.65,566.88 610.33,562.88C609.64,561.69 608.53,561.57 607.84,560.33C604.6,554.463 601.157,548.73 597.51,543.13C593.84,537.5 591.92,533.05 591.04,526.94C590.67,524.34 589.52,521.31 589.7,518.24C589.82,516 588.38,514.04 588.29,511.59C588.143,507.45 587.83,503.33 587.35,499.23C586.69,493.62 587.06,488.36 587.1,482.84C587.1,482.78 587.07,482.75 587.01,482.75L586.73,482.75C586.606,482.748 586.504,482.645 586.504,482.52C586.504,482.503 586.506,482.486 586.51,482.47C587.817,477.303 587.78,472.19 586.4,467.13C585.19,462.71 584.58,460.12 583.82,456.51C583.53,455.11 582.56,453.58 582.75,451.67C582.783,451.343 582.7,451.05 582.5,450.79C581.713,449.79 581.533,448.667 581.96,447.42C583.12,444.02 583.79,440.533 583.97,436.96C584.2,432.3 585.35,429.46 589.58,427.76C589.693,427.713 589.75,427.63 589.75,427.51C589.75,427.41 589.743,427.303 589.73,427.19C589.703,426.93 589.82,426.783 590.08,426.75C594.49,426.21 601.33,423.12 605.08,420.86C605.153,420.82 605.193,420.76 605.2,420.68L605.24,420.38C605.267,420.18 605.363,420.023 605.53,419.91C608.497,417.803 610.717,415.067 612.19,411.7C612.397,411.22 612.577,411.233 612.73,411.74C612.93,412.433 612.787,412.887 612.3,413.1C612.089,413.196 611.924,413.372 611.84,413.59L611.26,415.25C611.12,415.637 611.18,415.673 611.44,415.36C613.487,412.893 615.02,409.87 616.04,406.29C616.093,406.117 616.267,405.877 616.56,405.57C616.793,405.33 616.94,405.047 617,404.72C618.1,398.84 619.32,391.29 617.73,385.47C617.37,384.13 616.19,382.81 616.53,380.82C616.59,380.493 616.567,380.17 616.46,379.85C613.84,371.89 609.387,365.17 603.1,359.69C602.647,359.297 602.037,358.917 601.27,358.55C599.01,357.47 597.78,355.02 595.44,353.78C583.72,340.91 564.29,335.56 548.35,344.34C545.157,342.993 543.18,340.35 542.42,336.41C542.6,335.37 542.273,334.587 541.44,334.06C531.567,327.853 520.563,326.723 508.43,330.67C507.663,330.35 506.8,330.207 505.84,330.24C505.647,330.247 505.613,330.173 505.74,330.02C507.94,327.4 504.32,324.99 502.99,322.94C502.803,322.653 502.583,322.437 502.33,322.29C501.99,322.09 501.64,321.84 501.28,321.54C501.073,321.373 500.973,321.153 500.98,320.88C501.12,313.77 495.61,310.8 496.93,303.57C497.083,302.697 496.717,301.813 495.83,300.92C502.95,299.687 509.897,299.02 516.67,298.92Z" style="fill:rgb(31,41,55);fill-rule:nonzero;stroke:rgb(65,65,65);stroke-width:1.54px;"/>
                </g>
                <g transform="matrix(-0.70249,0,0,0.587298,1205.6,1157.19)">
                    <path d="M495.83,300.92C496.717,301.813 497.083,302.697 496.93,303.57C495.61,310.8 501.12,313.77 500.98,320.88C500.973,321.153 501.073,321.373 501.28,321.54C501.64,321.84 501.99,322.09 502.33,322.29C502.583,322.437 502.803,322.653 502.99,322.94C504.32,324.99 507.94,327.4 505.74,330.02C505.613,330.173 505.647,330.247 505.84,330.24C506.8,330.207 507.663,330.35 508.43,330.67C503.083,332.643 498.273,335.587 494,339.5C491.413,341.467 489.317,343.98 487.71,347.04C487.563,347.327 487.387,347.343 487.18,347.09C483.853,343.11 480.193,339.673 476.2,336.78C476.45,331.97 468.41,335.3 466,336.2C465.52,335.813 464.73,335.74 463.63,335.98C463.243,336.067 462.943,335.947 462.73,335.62L455.93,325.21C455.723,324.89 455.733,324.58 455.96,324.28C456.433,323.66 456.607,322.963 456.48,322.19C456.433,321.897 456.263,321.75 455.97,321.75L455.23,321.75C454.863,321.75 454.6,321.587 454.44,321.26L451.34,314.96C465.627,307.88 480.457,303.2 495.83,300.92Z" style="fill:rgb(31,41,55);fill-rule:nonzero;stroke:rgb(31,41,55);stroke-width:1.54px;"/>
                </g>
                <g transform="matrix(-0.70249,0,0,0.587298,1205.6,1157.19)">
                    <path d="M451.34,314.96L454.44,321.26C454.6,321.587 454.863,321.75 455.23,321.75L455.97,321.75C456.263,321.75 456.433,321.897 456.48,322.19C456.607,322.963 456.433,323.66 455.96,324.28C455.733,324.58 455.723,324.89 455.93,325.21L462.73,335.62C462.943,335.947 463.243,336.067 463.63,335.98C464.73,335.74 465.52,335.813 466,336.2C459.173,338.9 452.987,342.38 447.44,346.64L444.56,348.77C444.08,348.73 443.523,348.927 442.89,349.36C442.483,349.64 442.317,349.533 442.39,349.04L442.45,348.63C442.503,348.297 442.68,348.053 442.98,347.9L444.25,347.24C444.643,347.04 444.627,346.893 444.2,346.8C437.56,345.33 435.7,339.86 431.82,335.99C431.607,335.77 431.5,335.507 431.5,335.2L431.5,334.31C431.5,333.97 431.35,333.727 431.05,333.58C429.47,332.813 428.75,331.513 428.89,329.68C428.91,329.38 429.047,329.15 429.3,328.99C430.14,328.47 430.553,327.77 430.54,326.89C437.16,322.357 444.093,318.38 451.34,314.96Z" style="fill:rgb(31,41,55);fill-rule:nonzero;stroke:rgb(31,41,55);stroke-width:1.54px;"/>
                </g>
                <g transform="matrix(-0.70249,0,0,0.587298,1205.6,1157.19)">
                    <path d="M430.54,326.89C430.553,327.77 430.14,328.47 429.3,328.99C429.047,329.15 428.91,329.38 428.89,329.68C428.75,331.513 429.47,332.813 431.05,333.58C431.35,333.727 431.5,333.97 431.5,334.31L431.5,335.2C431.5,335.507 431.607,335.77 431.82,335.99C435.7,339.86 437.56,345.33 444.2,346.8C444.627,346.893 444.643,347.04 444.25,347.24L442.98,347.9C442.68,348.053 442.503,348.297 442.45,348.63L442.39,349.04C442.317,349.533 442.483,349.64 442.89,349.36C443.523,348.927 444.08,348.73 444.56,348.77C439.353,353.39 434.957,358.553 431.37,364.26L426.97,369.87C426.69,370.23 426.6,370.187 426.7,369.74C426.8,369.287 427.003,368.843 427.31,368.41C427.497,368.143 427.43,368.04 427.11,368.1C425.183,368.433 423.857,369.47 423.13,371.21C422.99,371.543 422.78,371.823 422.5,372.05L414.62,378.31C414.588,378.335 414.549,378.349 414.509,378.349C414.449,378.349 414.394,378.319 414.36,378.27C414.313,378.197 414.28,378.12 414.26,378.04C414.133,377.507 413.797,377.283 413.25,377.37L409.23,378.03C408.95,378.077 408.86,378.233 408.96,378.5C409.1,378.88 409.09,379.217 408.93,379.51C408.75,379.823 408.39,380.02 407.85,380.1C401.21,381.02 400.54,375.43 396.61,372.03C396.31,371.77 396.247,371.46 396.42,371.1L397.56,368.74C397.7,368.453 397.647,368.21 397.4,368.01C395.153,366.19 394.98,364.197 396.88,362.03C397.093,361.783 397.137,361.513 397.01,361.22C396.677,360.453 396.907,359.873 397.7,359.48C397.773,359.447 397.797,359.39 397.77,359.31C397.743,359.223 397.713,359.137 397.68,359.05C397.667,359.002 397.623,358.968 397.574,358.968C397.535,358.968 397.5,358.988 397.48,359.02C396.633,360.36 395.703,360.973 394.69,360.86C404.857,347.76 416.807,336.437 430.54,326.89Z" style="fill:rgb(31,41,55);fill-rule:nonzero;stroke:rgb(31,41,55);stroke-width:1.54px;"/>
                </g>
                <g transform="matrix(-0.70249,0,0,0.587298,1205.6,1157.19)">
                    <path d="M542.42,336.41L541.54,337.72C532.94,342.26 525.51,348.67 523.22,358.47C521.347,362.383 521.223,366.617 522.85,371.17C523.03,375.27 524.15,379.67 520.73,382.95C518.017,385.543 514.94,386.727 511.5,386.5C500.327,385.773 492.177,380.28 487.05,370.02C483.28,358.91 486.2,348.05 494,339.5C498.273,335.587 503.083,332.643 508.43,330.67C520.563,326.723 531.567,327.853 541.44,334.06C542.273,334.587 542.6,335.37 542.42,336.41Z" style="fill:rgb(31,41,55);fill-rule:nonzero;stroke:rgb(31,41,55);stroke-width:1.54px;"/>
                </g>
                <g transform="matrix(-0.70249,0,0,0.587298,1205.6,1157.19)">
                    <path d="M476.2,336.78C475.94,340.66 475.457,344.983 474.75,349.75C474.49,351.523 474.58,355.36 475.02,361.26C475.693,366.713 477.143,371.943 479.37,376.95C479.13,377.723 478.74,377.967 478.2,377.68C478.103,377.634 478.026,377.557 477.98,377.46C477.013,375.467 476.233,373.407 475.64,371.28C475.553,370.98 475.367,370.773 475.08,370.66L471.4,369.19C471.08,369.057 470.837,368.837 470.67,368.53C470.237,367.717 469.593,367.16 468.74,366.86C468.367,366.733 468.06,366.517 467.82,366.21L465.61,363.35C465.403,363.083 465.467,362.957 465.8,362.97C467.013,363.003 468.043,363.477 468.89,364.39C469.197,364.723 469.323,364.663 469.27,364.21C469.25,364.083 469.213,363.957 469.16,363.83C469.08,363.65 468.913,363.477 468.66,363.31C467.433,362.503 466.387,361.06 465.52,358.98C464.907,357.513 463.467,355.987 461.2,354.4C460.914,354.196 460.728,353.879 460.69,353.53C460.163,348.677 457.68,346.753 453.24,347.76C452.907,347.84 452.57,347.863 452.23,347.83L450.03,347.63C449.731,347.604 449.498,347.346 449.5,347.04L449.5,346.75C449.5,346.49 449.387,346.423 449.16,346.55C448.653,346.83 448.08,346.86 447.44,346.64C452.987,342.38 459.173,338.9 466,336.2C468.41,335.3 476.45,331.97 476.2,336.78Z" style="fill:rgb(31,41,55);fill-rule:nonzero;stroke:rgb(31,41,55);stroke-width:1.54px;"/>
                </g>
                <g transform="matrix(-0.70249,0,0,0.587298,1205.6,1157.19)">
                    <path d="M476.2,336.78C480.193,339.673 483.853,343.11 487.18,347.09C487.387,347.343 487.563,347.327 487.71,347.04C489.317,343.98 491.413,341.467 494,339.5C486.2,348.05 483.28,358.91 487.05,370.02C487.51,372.26 488.66,374.553 490.5,376.9C484.88,376.79 489.86,385.72 489.8,388.65C489.72,392.59 487.18,394.28 486.09,397.52C485.99,397.82 485.807,398.053 485.54,398.22C485.027,398.547 484.69,399.08 484.53,399.82C479.823,400.6 475.457,402.437 471.43,405.33C471.06,402.22 477.8,399.98 479.61,399.36C479.91,399.258 480.159,399.034 480.3,398.74C481.127,396.98 482.267,395.46 483.72,394.18C489.28,389.29 486.81,381.63 482.99,376.68C481.757,375.087 480.963,373.517 480.61,371.97C479.923,368.997 479.043,366.013 477.97,363.02C477.83,362.64 477.56,362.463 477.16,362.49L476.48,362.55C476.333,362.557 476.253,362.49 476.24,362.35C476.14,361.557 475.733,361.193 475.02,361.26C474.58,355.36 474.49,351.523 474.75,349.75C475.457,344.983 475.94,340.66 476.2,336.78Z" style="fill:rgb(31,41,55);fill-rule:nonzero;stroke:rgb(31,41,55);stroke-width:1.54px;"/>
                </g>
                <g transform="matrix(-0.70249,0,0,0.587298,1205.6,1157.19)">
                    <path d="M542.42,336.41C543.18,340.35 545.157,342.993 548.35,344.34L545.98,345.81C545.613,345.17 545.06,345.087 544.32,345.56C543.533,346.067 543,346.64 542.72,347.28C542.607,347.533 542.42,347.707 542.16,347.8C538.92,348.92 535.73,354.35 534.35,357.07C534.217,357.323 534.04,357.357 533.82,357.17C532.633,356.177 531.563,356.203 530.61,357.25C530.58,357.284 530.544,357.311 530.502,357.329C530.351,357.393 530.171,357.317 530.105,357.16C530.088,357.119 530.079,357.074 530.08,357.03L530.12,355.73C530.121,355.72 530.121,355.71 530.121,355.7C530.121,355.497 529.954,355.33 529.751,355.33C529.578,355.33 529.427,355.451 529.39,355.62C527.82,361.24 528.91,367.08 528.82,371.67C528.747,375.97 528.767,380.27 528.88,384.57C528.88,384.643 528.903,384.653 528.95,384.6C529.023,384.507 529.113,384.443 529.22,384.41C529.413,384.35 529.467,384.41 529.38,384.59L528.47,386.55C524.937,388.617 521.84,391.353 519.18,394.76C518.82,394.08 518.917,393.41 519.47,392.75C519.763,392.397 519.687,392.28 519.24,392.4C514.633,393.64 510.293,393.64 506.22,392.4C507.447,391.587 508.923,391.29 510.65,391.51C510.977,391.55 511.297,391.517 511.61,391.41L515.29,390.17C515.623,390.057 515.86,389.837 516,389.51C516.387,388.643 516.623,387.747 516.71,386.82C516.737,386.58 516.86,386.41 517.08,386.31C518.727,385.59 520.067,384.607 521.1,383.36C524.387,379.767 524.97,375.703 522.85,371.17C521.223,366.617 521.347,362.383 523.22,358.47C525.62,352.383 529.23,347.497 534.05,343.81C536.33,342.063 538.657,340.387 541.03,338.78C541.723,338.307 541.893,337.953 541.54,337.72L542.42,336.41Z" style="fill:rgb(31,41,55);fill-rule:nonzero;stroke:rgb(31,41,55);stroke-width:1.54px;"/>
                </g>
                <g transform="matrix(-0.70249,0,0,0.587298,1205.6,1157.19)">
                    <path d="M541.54,337.72C541.893,337.953 541.723,338.307 541.03,338.78C538.657,340.387 536.33,342.063 534.05,343.81C529.23,347.497 525.62,352.383 523.22,358.47C525.51,348.67 532.94,342.26 541.54,337.72Z" style="fill:rgb(31,41,55);fill-rule:nonzero;stroke:rgb(31,41,55);stroke-width:1.54px;"/>
                </g>
                <g transform="matrix(-0.70249,0,0,0.587298,1205.6,1157.19)">
                    <path d="M595.44,353.78L600.85,361.39C607.617,376.683 605.833,390.11 595.5,401.67C589.927,407.737 583.63,410.163 576.61,408.95C570.84,407.95 566.58,403.25 567.14,397.19C568.12,386.57 563.793,379.297 554.16,375.37C549.7,373.55 544.69,374.64 540.65,372.16C534.31,368.26 532.98,362.453 536.66,354.74C539.5,351.14 542.607,348.163 545.98,345.81L548.35,344.34C564.29,335.56 583.72,340.91 595.44,353.78Z" style="fill:rgb(31,41,55);fill-rule:nonzero;stroke:rgb(31,41,55);stroke-width:1.54px;"/>
                </g>
                <g transform="matrix(-0.70249,0,0,0.587298,1205.6,1157.19)">
                    <path d="M545.98,345.81C542.607,348.163 539.5,351.14 536.66,354.74C531.84,362.027 533.323,368.23 541.11,373.35C541.523,373.623 541.653,373.993 541.5,374.46C541.433,374.653 541.493,374.87 541.68,375.11C541.827,375.297 541.993,375.463 542.18,375.61L547.05,379.26C547.303,379.453 547.587,379.583 547.9,379.65C551.51,380.4 554.96,382.7 557.63,383.76C562.09,385.54 566.61,386.07 566.7,392C566.77,397.37 565.53,401.87 569.58,406.13C568.96,408.163 569.1,410.297 570,412.53C570.613,414.037 570.903,415.213 570.87,416.06C570.77,418.373 569.97,419.447 568.47,419.28C564.48,404.16 543.79,405.98 544.62,423.73C542.38,428.103 539.5,430.637 535.98,431.33L530.94,429.09C530.6,427.37 530.61,425.753 530.97,424.24C531.037,423.953 531.187,423.717 531.42,423.53L536.97,419.15C537.242,418.934 537.311,418.546 537.13,418.25C536.67,417.52 536.59,417.02 537,416.19C539.73,410.66 543.56,401.61 549.68,399.42C553.1,398.2 557,397.45 558.83,393.75L564.74,399.46C564.934,399.646 565.192,399.75 565.46,399.75C566.03,399.75 566.5,399.28 566.5,398.71L566.5,394.25C566.5,393.897 566.357,393.62 566.07,393.42C564.78,392.49 563.93,391.59 562.47,390.89C559.29,389.36 556.65,386.75 553.41,385.65C549.77,384.42 547.26,382.88 543.19,383.85C538.157,382.923 533.25,383.823 528.47,386.55L529.38,384.59C529.467,384.41 529.413,384.35 529.22,384.41C529.113,384.443 529.023,384.507 528.95,384.6C528.903,384.653 528.88,384.643 528.88,384.57C528.767,380.27 528.747,375.97 528.82,371.67C528.91,367.08 527.82,361.24 529.39,355.62C529.427,355.451 529.578,355.33 529.751,355.33C529.954,355.33 530.121,355.497 530.121,355.7C530.121,355.71 530.121,355.72 530.12,355.73L530.08,357.03C530.079,357.074 530.088,357.119 530.105,357.16C530.171,357.317 530.351,357.393 530.502,357.329C530.544,357.311 530.58,357.284 530.61,357.25C531.563,356.203 532.633,356.177 533.82,357.17C534.04,357.357 534.217,357.323 534.35,357.07C535.73,354.35 538.92,348.92 542.16,347.8C542.42,347.707 542.607,347.533 542.72,347.28C543,346.64 543.533,346.067 544.32,345.56C545.06,345.087 545.613,345.17 545.98,345.81Z" style="fill:rgb(31,41,55);fill-rule:nonzero;stroke:rgb(31,41,55);stroke-width:1.54px;"/>
                </g>
                <g transform="matrix(-0.70249,0,0,0.587298,1205.6,1157.19)">
                    <path d="M479.37,376.95C481.017,380.483 482.207,383.187 482.94,385.06C483.233,385.813 483,386.543 482.24,387.25C471.74,392.92 462.12,397.16 456,408.58L450.2,415.94C449.967,416.233 449.663,416.367 449.29,416.34C442.31,415.87 431.16,408.8 427.39,403.22C424.277,398.62 423,393.197 423.56,386.95C424.367,378.997 426.97,371.433 431.37,364.26C434.957,358.553 439.353,353.39 444.56,348.77L447.44,346.64C448.08,346.86 448.653,346.83 449.16,346.55C449.387,346.423 449.5,346.49 449.5,346.75L449.5,347.04C449.498,347.346 449.731,347.604 450.03,347.63L452.23,347.83C452.57,347.863 452.907,347.84 453.24,347.76C457.68,346.753 460.163,348.677 460.69,353.53C460.728,353.879 460.914,354.196 461.2,354.4C463.467,355.987 464.907,357.513 465.52,358.98C466.387,361.06 467.433,362.503 468.66,363.31C468.913,363.477 469.08,363.65 469.16,363.83C469.213,363.957 469.25,364.083 469.27,364.21C469.323,364.663 469.197,364.723 468.89,364.39C468.043,363.477 467.013,363.003 465.8,362.97C465.467,362.957 465.403,363.083 465.61,363.35L467.82,366.21C468.06,366.517 468.367,366.733 468.74,366.86C469.593,367.16 470.237,367.717 470.67,368.53C470.837,368.837 471.08,369.057 471.4,369.19L475.08,370.66C475.367,370.773 475.553,370.98 475.64,371.28C476.233,373.407 477.013,375.467 477.98,377.46C478.026,377.557 478.103,377.634 478.2,377.68C478.74,377.967 479.13,377.723 479.37,376.95Z" style="fill:rgb(31,41,55);fill-rule:nonzero;stroke:rgb(31,41,55);stroke-width:1.54px;"/>
                </g>
                <g transform="matrix(-0.70249,0,0,0.587298,1205.6,1157.19)">
                    <path d="M595.44,353.78C597.78,355.02 599.01,357.47 601.27,358.55C602.037,358.917 602.647,359.297 603.1,359.69C609.387,365.17 613.84,371.89 616.46,379.85C616.567,380.17 616.59,380.493 616.53,380.82C616.19,382.81 617.37,384.13 617.73,385.47C619.32,391.29 618.1,398.84 617,404.72C616.94,405.047 616.793,405.33 616.56,405.57C616.267,405.877 616.093,406.117 616.04,406.29C615.02,409.87 613.487,412.893 611.44,415.36C611.18,415.673 611.12,415.637 611.26,415.25L611.84,413.59C611.924,413.372 612.089,413.196 612.3,413.1C612.787,412.887 612.93,412.433 612.73,411.74C612.577,411.233 612.397,411.22 612.19,411.7C610.717,415.067 608.497,417.803 605.53,419.91C605.363,420.023 605.267,420.18 605.24,420.38L605.2,420.68C605.193,420.76 605.153,420.82 605.08,420.86C601.33,423.12 594.49,426.21 590.08,426.75C589.82,426.783 589.703,426.93 589.73,427.19C589.743,427.303 589.75,427.41 589.75,427.51C589.75,427.63 589.693,427.713 589.58,427.76C585.35,429.46 584.2,432.3 583.97,436.96C583.79,440.533 583.12,444.02 581.96,447.42C581.533,448.667 581.713,449.79 582.5,450.79C582.7,451.05 582.783,451.343 582.75,451.67C582.56,453.58 583.53,455.11 583.82,456.51C584.58,460.12 585.19,462.71 586.4,467.13C587.78,472.19 587.817,477.303 586.51,482.47C586.506,482.486 586.504,482.503 586.504,482.52C586.504,482.645 586.606,482.748 586.73,482.75L587.01,482.75C587.07,482.75 587.1,482.78 587.1,482.84C587.06,488.36 586.69,493.62 587.35,499.23C587.83,503.33 588.143,507.45 588.29,511.59C588.38,514.04 589.82,516 589.7,518.24C589.52,521.31 590.67,524.34 591.04,526.94C591.92,533.05 593.84,537.5 597.51,543.13C601.157,548.73 604.6,554.463 607.84,560.33C608.53,561.57 609.64,561.69 610.33,562.88C612.65,566.88 615.05,570.83 617.53,574.73C618.36,576.02 618.47,578.39 620.57,579.3C620.877,579.433 621.107,579.647 621.26,579.94C623.82,584.84 627.94,588.38 629.11,594.14C629.637,596.773 630.717,599.18 632.35,601.36C632.543,601.62 632.647,601.913 632.66,602.24C632.73,604.42 635.3,606.81 636.59,609.56C636.723,609.853 636.95,610.02 637.27,610.06C638.377,610.2 639.31,610.677 640.07,611.49C640.277,611.71 640.347,611.967 640.28,612.26L639.95,613.84C639.877,614.16 639.963,614.43 640.21,614.65L642.98,617.16C643.193,617.353 643.257,617.587 643.17,617.86L643.01,618.35C642.999,618.385 642.994,618.422 642.994,618.459C642.994,618.668 643.166,618.839 643.374,618.839C643.469,618.839 643.56,618.804 643.63,618.74L648.03,614.66C648.21,614.5 648.293,614.54 648.28,614.78C648.267,614.953 648.157,615.113 647.95,615.26C647.892,615.312 647.86,615.377 647.858,615.445C647.853,615.615 648.038,615.761 648.268,615.768C648.362,615.771 648.455,615.751 648.53,615.71C649.283,615.21 650.167,614.423 651.18,613.35C645.98,622.06 637.11,625.58 627.5,626.73C618.713,627.783 609.9,628.563 601.06,629.07C598.673,629.21 595.7,629.723 592.14,630.61C592.14,630.07 591.83,629.757 591.21,629.67C590.89,629.623 590.793,629.45 590.92,629.15C591.16,628.617 591.057,628.193 590.61,627.88C588.01,626.053 585.987,624.16 584.54,622.2C583.927,621.367 583.14,620.71 582.18,620.23C581.873,620.077 581.663,619.837 581.55,619.51C581.183,618.403 580.65,617.39 579.95,616.47C578.06,613.97 577.07,612.08 575.82,609.57C575.07,608.07 575.18,605.76 573.33,604.54C573.043,604.347 572.843,604.09 572.73,603.77C572.257,602.443 571.353,600.94 570.02,599.26C564.933,592.833 560.597,585.257 557.01,576.53C556.07,574.24 555.18,571.24 555.65,568.42C556.25,564.8 556.97,561.67 556.91,557.82C556.83,552.52 557.33,545.54 560.02,540.84C562.83,535.93 566.96,531.13 570.68,526.89C572.75,523.96 575.3,520.34 575.91,516.77C576.15,515.41 577.13,514.8 577.45,513.44C579.15,506.127 578.48,499.66 575.44,494.04C571.43,486.64 574.56,486.03 578.86,481.8C584.63,476.13 583.73,467.13 580.05,460.64C579.883,460.347 579.633,460.18 579.3,460.14C579.02,460.107 578.843,459.98 578.77,459.76C578.003,457.447 576.717,455.583 574.91,454.17C573.183,452.823 572.1,451.837 571.66,451.21C570.78,449.97 570,448.66 569.32,447.28C569.184,447 569.279,446.66 569.54,446.49C572.747,444.47 575.01,441.73 576.33,438.27C576.95,436.64 576.6,434.86 577.06,433.04C577.99,429.31 577.97,426.6 577.28,423.09C577.256,422.968 577.244,422.844 577.244,422.719C577.244,421.748 577.984,420.924 578.95,420.82C582.92,420.42 587.34,421.61 590.29,421.6C596.19,421.573 600.93,419.043 604.51,414.01C604.544,413.975 604.597,413.97 604.629,413.999C604.629,413.999 604.63,414 604.63,414C604.69,414.067 604.753,414.133 604.82,414.2C604.826,414.206 604.832,414.211 604.838,414.217C604.936,414.296 605.085,414.278 605.168,414.176C605.172,414.171 605.176,414.165 605.18,414.16C605.68,413.387 605.87,412.54 605.75,411.62C605.717,411.32 605.753,411.03 605.86,410.75C606.91,408.11 610.97,396.96 609.16,393.14C609.023,392.853 608.971,392.53 609.01,392.21C609.27,390.083 609.27,388.18 609.01,386.5C608.983,386.353 608.857,386.25 608.63,386.19C608.377,386.123 608.257,385.96 608.27,385.7C608.35,382.907 607.627,380.383 606.1,378.13C605.753,377.61 605.553,376.737 605.5,375.51C605.293,370.65 603.743,365.943 600.85,361.39L595.44,353.78Z" style="fill:rgb(31,41,55);fill-rule:nonzero;stroke:rgb(31,41,55);stroke-width:1.54px;"/>
                </g>
                <g transform="matrix(-0.70249,0,0,0.587298,1205.6,1157.19)">
                    <path d="M536.66,354.74C532.98,362.453 534.31,368.26 540.65,372.16C544.69,374.64 549.7,373.55 554.16,375.37C563.793,379.297 568.12,386.57 567.14,397.19C566.58,403.25 570.84,407.95 576.61,408.95C583.63,410.163 589.927,407.737 595.5,401.67C594.113,403.963 592.207,405.797 589.78,407.17C589.46,407.35 589.347,407.617 589.44,407.97L589.67,408.89C589.763,409.23 589.657,409.483 589.35,409.65C588.463,410.137 587.597,410.65 586.75,411.19C584.27,412.76 583.21,415.92 579.47,414.23C577.42,413.31 572.94,411.85 572.99,409.22C572.997,408.9 572.87,408.643 572.61,408.45L569.58,406.13C565.53,401.87 566.77,397.37 566.7,392C566.61,386.07 562.09,385.54 557.63,383.76C554.96,382.7 551.51,380.4 547.9,379.65C547.587,379.583 547.303,379.453 547.05,379.26L542.18,375.61C541.993,375.463 541.827,375.297 541.68,375.11C541.493,374.87 541.433,374.653 541.5,374.46C541.653,373.993 541.523,373.623 541.11,373.35C533.323,368.23 531.84,362.027 536.66,354.74Z" style="fill:rgb(31,41,55);fill-rule:nonzero;stroke:rgb(31,41,55);stroke-width:1.54px;"/>
                </g>
                <g transform="matrix(-0.70249,0,0,0.587298,1205.6,1157.19)">
                    <path d="M431.37,364.26C426.97,371.433 424.367,378.997 423.56,386.95C421.96,388.263 421.38,389.737 421.82,391.37C421.831,391.411 421.836,391.453 421.836,391.496C421.836,391.765 421.615,391.986 421.346,391.986C421.321,391.986 421.295,391.984 421.27,391.98C418.197,391.533 415.807,390.657 414.1,389.35C414.65,384.38 411.77,381.82 407.02,384.04C401.913,386.433 398.97,390.533 398.19,396.34L397.75,395.87C397.669,395.786 397.557,395.738 397.44,395.738C397.253,395.738 397.086,395.861 397.03,396.04L396.66,397.33C396.553,397.677 396.32,397.833 395.96,397.8C394.687,397.693 394.23,398.28 394.59,399.56C394.625,399.685 394.74,399.771 394.869,399.771C394.897,399.771 394.924,399.768 394.95,399.76C395.05,399.733 395.153,399.73 395.26,399.75C395.393,399.777 395.453,399.86 395.44,400C395.26,401.713 395.617,403.31 396.51,404.79C396.692,405.098 396.714,405.475 396.57,405.8L394.98,409.47C394.87,409.723 394.845,410.004 394.91,410.27C395.46,412.44 393.97,413.21 392.48,414.13C392.195,414.304 392.024,414.617 392.03,414.95C392.08,417.89 390.33,419.58 390.06,422.06C389.8,424.427 389.773,426.63 389.98,428.67C390.76,433.843 393.03,437.997 396.79,441.13C397.05,441.35 397.243,441.613 397.37,441.92C398.803,445.36 401.217,447.677 404.61,448.87C406.6,449.57 410.18,451.72 411.34,451.78C412.233,451.82 412.227,451.923 411.32,452.09C410.373,452.263 409.577,452.713 408.93,453.44C408.783,453.607 408.82,453.703 409.04,453.73L410.73,453.95C390.52,462.94 388.58,489.37 404.12,503.59C404.253,505.517 405.583,507.527 408.11,509.62C415.68,515.9 424.81,519.75 434.34,514.58C434.627,514.427 434.933,514.337 435.26,514.31C436.73,514.19 438.2,512.36 439.48,511.5C439.753,511.318 439.96,511.052 440.07,510.74C441.09,507.94 442.88,505.623 445.44,503.79C445.547,506.283 444.477,508.22 442.23,509.6C441.982,509.752 441.811,510.004 441.76,510.29C441.54,511.437 441.063,512.45 440.33,513.33C440.302,513.36 440.287,513.399 440.287,513.44C440.287,513.529 440.361,513.603 440.45,513.603C440.496,513.603 440.539,513.584 440.57,513.55L440.8,513.33C441.033,513.09 441.233,513.117 441.4,513.41C443.52,517.17 443.1,525.23 442.76,528.56C442.747,528.691 442.764,528.822 442.81,528.94C444.23,533.08 444.92,537.73 448.94,541.58L452.34,548.32C452.364,548.361 452.376,548.408 452.376,548.455C452.376,548.604 452.254,548.726 452.105,548.726C452.008,548.726 451.918,548.674 451.87,548.59C451.817,548.517 451.773,548.4 451.74,548.24C451.735,548.178 451.682,548.13 451.62,548.13C451.554,548.13 451.5,548.184 451.5,548.25C451.5,548.253 451.5,548.257 451.5,548.26L451.5,549.49C451.5,549.85 451.62,550.167 451.86,550.44C455.07,554.05 459.06,556.37 462.87,559.25C472.71,566.68 486.56,561.95 493.71,553.61C494.323,552.897 494.26,552.77 493.52,553.23C493.173,553.443 492.65,553.873 491.95,554.52C491.919,554.543 491.882,554.555 491.844,554.555C491.745,554.555 491.664,554.473 491.664,554.375C491.664,554.349 491.669,554.323 491.68,554.3C493.807,550.813 496.217,547.493 498.91,544.34C501.07,541.81 501.83,539.36 502.62,536.32C503.847,536.193 504.543,536.89 504.71,538.41C504.748,538.751 504.912,539.068 505.17,539.3C507.19,541.1 508.35,544.42 511.6,543.91C511.886,543.863 512.173,544.004 512.31,544.26C512.923,545.347 513.79,545.947 514.91,546.06C519.78,559.2 540.14,551.82 534.96,539.26C535.44,539.193 535.823,539.243 536.11,539.41C536.343,539.543 536.497,539.847 536.57,540.32C536.91,542.367 537.787,544.6 539.2,547.02C539.627,547.76 539.61,548.517 539.15,549.29C539.05,549.47 538.957,549.653 538.87,549.84C538.703,550.227 538.713,550.44 538.9,550.48C539.36,550.587 539.56,550.873 539.5,551.34L539.45,551.72C539.449,551.725 539.449,551.731 539.449,551.737C539.449,551.835 539.53,551.917 539.629,551.917C539.674,551.917 539.717,551.9 539.75,551.87L539.95,551.67C539.99,551.635 540.041,551.616 540.094,551.616C540.215,551.616 540.314,551.715 540.314,551.836C540.314,551.851 540.313,551.865 540.31,551.88C539.443,554.987 538.08,557.843 536.22,560.45C536.067,560.663 535.863,560.793 535.61,560.84C531.69,561.65 528.09,560.73 524.35,561.57C519.26,562.71 514.1,562.84 509.15,564.4C508.823,564.507 508.533,564.68 508.28,564.92C507.58,565.6 506.733,565.877 505.74,565.75C505.608,565.742 505.505,565.632 505.505,565.5C505.505,565.363 505.618,565.25 505.755,565.25C505.76,565.25 505.765,565.25 505.77,565.25L506.5,565.25C506.613,565.25 506.677,565.23 506.69,565.19C506.717,565.103 506.743,565.02 506.77,564.94C506.81,564.82 506.77,564.773 506.65,564.8C501.55,565.74 496.413,566.353 491.24,566.64C491.16,566.64 491.107,566.68 491.08,566.76C491.047,566.853 491.017,566.943 490.99,567.03C490.937,567.183 490.99,567.26 491.15,567.26L493.88,567.23C494.047,567.23 494.073,567.29 493.96,567.41C493.847,567.537 493.683,567.55 493.47,567.45C484.59,568.93 467.25,566.29 462.12,573.72C462.036,573.843 461.916,573.934 461.78,573.98L459.6,574.81C459.22,574.95 459.007,575.223 458.96,575.63C458.833,576.677 458.88,577.713 459.1,578.74C459.16,579.04 459.17,579.347 459.13,579.66C458.83,581.807 459.103,584.61 459.95,588.07C460.54,590.49 459.86,593.57 461.47,596.47C462.697,598.67 463.723,600.953 464.55,603.32C465.47,605.95 467.01,608.29 468.12,610.84C470.76,616.86 473.93,622.45 477.12,628.19C478.66,630.96 479.97,634.39 481.83,636.95C483.57,639.337 484.18,642.063 483.66,645.13C483.628,645.311 483.663,645.496 483.76,645.65L492.91,660.83C492.994,660.973 493.029,661.138 493.01,661.3C492.883,662.18 493.157,662.903 493.83,663.47C494.117,663.71 494.333,664.003 494.48,664.35C495.647,667.157 497.233,669.967 499.24,672.78C501.6,676.1 503.7,679.76 505.54,683.76C507.08,687.12 509.68,689.85 511.2,693.47C512.02,695.43 513.59,696.75 514.39,698.84C514.493,699.11 514.693,699.334 514.95,699.47L515.81,699.91C516.157,700.09 516.387,700.363 516.5,700.73C517.34,703.323 518.723,705.59 520.65,707.53C520.915,707.801 521.078,708.155 521.11,708.53C521.29,710.763 522.09,712.74 523.51,714.46C523.77,714.78 523.927,715.143 523.98,715.55C524.08,716.33 524.433,716.967 525.04,717.46C525.36,717.713 525.607,718.023 525.78,718.39C526.107,719.07 525.987,719.503 525.42,719.69C525.389,719.7 525.358,719.713 525.33,719.729C525.08,719.866 524.989,720.189 525.129,720.444C525.144,720.471 525.161,720.496 525.18,720.52C529.89,726.3 536.61,730.8 535.38,739.13C486.34,718.76 438.61,706.19 386.22,698.22C385.813,698.16 385.76,697.987 386.06,697.7C408.34,676.54 428.63,652.66 431.83,620.74C433.97,599.48 427.43,578.21 413.52,561.98C411.247,559.327 405.85,553.303 397.33,543.91C377.143,521.65 365.54,495.383 362.52,465.11C360.353,426.417 371.077,391.667 394.69,360.86C395.703,360.973 396.633,360.36 397.48,359.02C397.5,358.988 397.535,358.968 397.574,358.968C397.623,358.968 397.667,359.002 397.68,359.05C397.713,359.137 397.743,359.223 397.77,359.31C397.797,359.39 397.773,359.447 397.7,359.48C396.907,359.873 396.677,360.453 397.01,361.22C397.137,361.513 397.093,361.783 396.88,362.03C394.98,364.197 395.153,366.19 397.4,368.01C397.647,368.21 397.7,368.453 397.56,368.74L396.42,371.1C396.247,371.46 396.31,371.77 396.61,372.03C400.54,375.43 401.21,381.02 407.85,380.1C408.39,380.02 408.75,379.823 408.93,379.51C409.09,379.217 409.1,378.88 408.96,378.5C408.86,378.233 408.95,378.077 409.23,378.03L413.25,377.37C413.797,377.283 414.133,377.507 414.26,378.04C414.28,378.12 414.313,378.197 414.36,378.27C414.394,378.319 414.449,378.349 414.509,378.349C414.549,378.349 414.588,378.335 414.62,378.31L422.5,372.05C422.78,371.823 422.99,371.543 423.13,371.21C423.857,369.47 425.183,368.433 427.11,368.1C427.43,368.04 427.497,368.143 427.31,368.41C427.003,368.843 426.8,369.287 426.7,369.74C426.6,370.187 426.69,370.23 426.97,369.87L431.37,364.26Z" style="fill:rgb(31,41,55);fill-rule:nonzero;stroke:rgb(31,41,55);stroke-width:1.54px;"/>
                </g>
                <g transform="matrix(-0.70249,0,0,0.587298,1205.6,1157.19)">
                    <path d="M475.02,361.26C475.733,361.193 476.14,361.557 476.24,362.35C476.253,362.49 476.333,362.557 476.48,362.55L477.16,362.49C477.56,362.463 477.83,362.64 477.97,363.02C479.043,366.013 479.923,368.997 480.61,371.97C480.963,373.517 481.757,375.087 482.99,376.68C486.81,381.63 489.28,389.29 483.72,394.18C482.267,395.46 481.127,396.98 480.3,398.74C480.159,399.034 479.91,399.258 479.61,399.36C477.8,399.98 471.06,402.22 471.43,405.33C461.29,414.123 457.753,425.283 460.82,438.81L460.17,439.05C460.16,439.053 460.151,439.057 460.142,439.061C459.877,439.168 459.751,439.479 459.86,439.748C459.863,439.755 459.867,439.763 459.87,439.77C461,442.2 463.52,446.93 463.24,449.55C463.2,449.89 463.307,450.173 463.56,450.4C464.973,451.687 465.583,453.47 465.39,455.75L465.58,459.84C465.587,460.107 465.707,460.31 465.94,460.45L466.29,460.66C466.703,460.907 466.673,461.063 466.2,461.13C462.687,461.63 459.657,463.11 457.11,465.57C456.857,465.817 456.637,465.793 456.45,465.5L445.08,447.93C444.765,447.444 444.196,447.185 443.63,447.27C443.29,447.323 442.98,447.567 442.7,448C442.553,447.86 442.44,447.687 442.36,447.48C442.227,447.147 442.317,446.89 442.63,446.71C443.223,446.377 443.857,446.22 444.53,446.24C444.837,446.253 445.113,446.167 445.36,445.98C446.9,444.84 447.79,443.933 448.03,443.26C448.943,440.733 449.077,438.297 448.43,435.95C448.91,426.75 439.26,416.13 429.77,421.76C425.88,424.07 425.02,424.85 421.09,424.8C410.923,424.687 402.977,420.723 397.25,412.91C397.188,412.824 397.118,412.745 397.04,412.674C396.391,412.075 395.361,412.119 394.758,412.772C394.688,412.849 394.625,412.932 394.57,413.02C391.69,417.713 390.503,422.803 391.01,428.29C390.923,428.223 390.843,428.17 390.77,428.13C390.65,428.063 390.553,428.09 390.48,428.21C390.333,428.457 390.167,428.61 389.98,428.67C389.773,426.63 389.8,424.427 390.06,422.06C390.33,419.58 392.08,417.89 392.03,414.95C392.024,414.617 392.195,414.304 392.48,414.13C393.97,413.21 395.46,412.44 394.91,410.27C394.845,410.004 394.87,409.723 394.98,409.47L396.57,405.8C396.714,405.475 396.692,405.098 396.51,404.79C395.617,403.31 395.26,401.713 395.44,400C395.453,399.86 395.393,399.777 395.26,399.75C395.153,399.73 395.05,399.733 394.95,399.76C394.924,399.768 394.897,399.771 394.869,399.771C394.74,399.771 394.625,399.685 394.59,399.56C394.23,398.28 394.687,397.693 395.96,397.8C396.32,397.833 396.553,397.677 396.66,397.33L397.03,396.04C397.086,395.861 397.253,395.738 397.44,395.738C397.557,395.738 397.669,395.786 397.75,395.87L398.19,396.34C397.87,402.507 400.107,407.643 404.9,411.75C406.8,414.01 409.287,415.7 412.36,416.82C412.893,417.013 413.243,417.263 413.41,417.57C413.597,417.93 413.63,418.353 413.51,418.84C413.491,418.913 413.481,418.988 413.481,419.063C413.481,419.54 413.874,419.933 414.351,419.933C414.374,419.933 414.397,419.932 414.42,419.93L419.99,419.47C420.27,419.443 420.49,419.317 420.65,419.09C422.92,415.89 420.25,408.02 416.41,407.02C412.35,401.18 413.1,396.05 414.1,389.35C415.807,390.657 418.197,391.533 421.27,391.98C421.295,391.984 421.321,391.986 421.346,391.986C421.615,391.986 421.836,391.765 421.836,391.496C421.836,391.453 421.831,391.411 421.82,391.37C421.38,389.737 421.96,388.263 423.56,386.95C423,393.197 424.277,398.62 427.39,403.22C431.16,408.8 442.31,415.87 449.29,416.34C449.663,416.367 449.967,416.233 450.2,415.94L456,408.58C461.193,401.547 466.717,396.54 472.57,393.56C476.997,391.307 480.277,389.453 482.41,388C482.59,387.873 482.63,387.717 482.53,387.53C482.39,387.257 482.293,387.163 482.24,387.25C483,386.543 483.233,385.813 482.94,385.06C482.207,383.187 481.017,380.483 479.37,376.95C477.143,371.943 475.693,366.713 475.02,361.26Z" style="fill:rgb(31,41,55);fill-rule:nonzero;stroke:rgb(31,41,55);stroke-width:1.54px;"/>
                </g>
                <g transform="matrix(-0.70249,0,0,0.587298,1205.6,1157.19)">
                    <path d="M600.85,361.39C603.743,365.943 605.293,370.65 605.5,375.51C605.553,376.737 605.753,377.61 606.1,378.13C607.627,380.383 608.35,382.907 608.27,385.7C608.257,385.96 608.377,386.123 608.63,386.19C608.857,386.25 608.983,386.353 609.01,386.5C609.27,388.18 609.27,390.083 609.01,392.21C608.971,392.53 609.023,392.853 609.16,393.14C610.97,396.96 606.91,408.11 605.86,410.75C605.753,411.03 605.717,411.32 605.75,411.62C605.87,412.54 605.68,413.387 605.18,414.16C605.176,414.165 605.172,414.171 605.168,414.176C605.085,414.278 604.936,414.296 604.838,414.217C604.832,414.211 604.826,414.206 604.82,414.2C604.753,414.133 604.69,414.067 604.63,414C604.63,414 604.629,413.999 604.629,413.999C604.597,413.97 604.544,413.975 604.51,414.01C600.93,419.043 596.19,421.573 590.29,421.6C587.34,421.61 582.92,420.42 578.95,420.82C577.984,420.924 577.244,421.748 577.244,422.719C577.244,422.844 577.256,422.968 577.28,423.09C577.97,426.6 577.99,429.31 577.06,433.04C576.6,434.86 576.95,436.64 576.33,438.27C575.01,441.73 572.747,444.47 569.54,446.49C569.279,446.66 569.184,447 569.32,447.28C570,448.66 570.78,449.97 571.66,451.21C572.1,451.837 573.183,452.823 574.91,454.17C576.717,455.583 578.003,457.447 578.77,459.76C578.843,459.98 579.02,460.107 579.3,460.14C579.633,460.18 579.883,460.347 580.05,460.64C583.73,467.13 584.63,476.13 578.86,481.8C574.56,486.03 571.43,486.64 575.44,494.04C578.48,499.66 579.15,506.127 577.45,513.44C577.13,514.8 576.15,515.41 575.91,516.77C575.3,520.34 572.75,523.96 570.68,526.89C570.307,526.617 570.44,526.043 571.08,525.17C571.413,524.723 571.32,524.603 570.8,524.81C568.22,525.87 567.16,528.37 565.05,529.77C564.997,529.803 564.987,529.793 565.02,529.74L568.84,523.67C568.877,523.612 568.897,523.544 568.897,523.475C568.897,523.276 568.734,523.113 568.535,523.113C568.412,523.113 568.296,523.176 568.23,523.28C564.663,528.593 560.207,532.983 554.86,536.45C554.7,536.55 554.59,536.513 554.53,536.34C554.497,536.24 554.463,536.137 554.43,536.03C554.37,535.857 554.27,535.827 554.13,535.94C551.77,537.79 548.56,537.83 546.09,540.94C545.902,541.174 545.793,541.465 545.78,541.77C545.62,545.89 545.857,549.053 546.49,551.26C547.82,555.89 548.21,563.68 543.18,565.92C541.76,566.547 540.753,567.073 540.16,567.5C539.92,567.667 539.947,567.75 540.24,567.75C540.327,567.75 540.417,567.743 540.51,567.73C540.547,567.723 540.582,567.731 540.607,567.753C540.658,567.798 540.654,567.887 540.599,567.951C540.572,567.982 540.536,568.003 540.5,568.01C537.767,568.65 535.077,568.557 532.43,567.73C531.542,567.453 530.574,567.609 529.82,568.15L522.66,573.31C522.353,573.53 522.163,573.823 522.09,574.19C521.917,575.043 521.98,575.897 522.28,576.75C522.42,577.15 522.453,577.56 522.38,577.98C522.127,579.513 522.423,580.927 523.27,582.22C523.425,582.459 523.496,582.745 523.47,583.03C523.257,585.437 523.9,587.56 525.4,589.4C525.627,589.673 525.773,589.987 525.84,590.34C527.02,596.26 532.23,600.86 535.04,606.08C535.833,607.56 536.58,609.063 537.28,610.59C537.407,610.863 537.6,611.08 537.86,611.24C540.57,612.81 542.96,618.34 544.05,620.91C545.59,624.52 548.54,626.63 550.03,630.49C550.93,632.8 552.04,633.92 553.73,635.48C553.97,635.707 554.143,635.977 554.25,636.29C554.763,637.823 555.663,639.08 556.95,640.06C557.241,640.274 557.449,640.581 557.54,640.93C558.347,643.843 559.653,646.49 561.46,648.87C562.387,650.083 563.063,651.283 563.49,652.47C564.79,656.07 565.29,657.83 569.2,657.28C569.853,657.187 570.103,656.643 569.95,655.65C569.95,655.617 569.963,655.597 569.99,655.59C570.09,655.557 570.19,655.523 570.29,655.49C570.53,655.417 570.667,655.507 570.7,655.76L570.87,657.04L569.39,666.94C568.47,673.78 567.883,680.41 567.63,686.83C566.777,708.163 566.053,729.553 565.46,751C565.447,751.387 565.263,751.507 564.91,751.36L535.38,739.13C536.61,730.8 529.89,726.3 525.18,720.52C525.161,720.496 525.144,720.471 525.129,720.444C524.989,720.189 525.08,719.866 525.33,719.729C525.358,719.713 525.389,719.7 525.42,719.69C525.987,719.503 526.107,719.07 525.78,718.39C525.607,718.023 525.36,717.713 525.04,717.46C524.433,716.967 524.08,716.33 523.98,715.55C523.927,715.143 523.77,714.78 523.51,714.46C522.09,712.74 521.29,710.763 521.11,708.53C521.078,708.155 520.915,707.801 520.65,707.53C518.723,705.59 517.34,703.323 516.5,700.73C516.387,700.363 516.157,700.09 515.81,699.91L514.95,699.47C514.693,699.334 514.493,699.11 514.39,698.84C513.59,696.75 512.02,695.43 511.2,693.47C509.68,689.85 507.08,687.12 505.54,683.76C503.7,679.76 501.6,676.1 499.24,672.78C497.233,669.967 495.647,667.157 494.48,664.35C494.333,664.003 494.117,663.71 493.83,663.47C493.157,662.903 492.883,662.18 493.01,661.3C493.029,661.138 492.994,660.973 492.91,660.83L483.76,645.65C483.663,645.496 483.628,645.311 483.66,645.13C484.18,642.063 483.57,639.337 481.83,636.95C479.97,634.39 478.66,630.96 477.12,628.19C473.93,622.45 470.76,616.86 468.12,610.84C467.01,608.29 465.47,605.95 464.55,603.32C463.723,600.953 462.697,598.67 461.47,596.47C459.86,593.57 460.54,590.49 459.95,588.07C459.103,584.61 458.83,581.807 459.13,579.66C459.17,579.347 459.16,579.04 459.1,578.74C458.88,577.713 458.833,576.677 458.96,575.63C459.007,575.223 459.22,574.95 459.6,574.81L461.78,573.98C461.916,573.934 462.036,573.843 462.12,573.72C467.25,566.29 484.59,568.93 493.47,567.45C493.683,567.55 493.847,567.537 493.96,567.41C494.073,567.29 494.047,567.23 493.88,567.23L491.15,567.26C490.99,567.26 490.937,567.183 490.99,567.03C491.017,566.943 491.047,566.853 491.08,566.76C491.107,566.68 491.16,566.64 491.24,566.64C496.413,566.353 501.55,565.74 506.65,564.8C506.77,564.773 506.81,564.82 506.77,564.94C506.743,565.02 506.717,565.103 506.69,565.19C506.677,565.23 506.613,565.25 506.5,565.25L505.77,565.25C505.765,565.25 505.76,565.25 505.755,565.25C505.618,565.25 505.505,565.363 505.505,565.5C505.505,565.632 505.608,565.742 505.74,565.75C506.733,565.877 507.58,565.6 508.28,564.92C508.533,564.68 508.823,564.507 509.15,564.4C514.1,562.84 519.26,562.71 524.35,561.57C528.09,560.73 531.69,561.65 535.61,560.84C535.863,560.793 536.067,560.663 536.22,560.45C538.08,557.843 539.443,554.987 540.31,551.88C540.313,551.865 540.314,551.851 540.314,551.836C540.314,551.715 540.215,551.616 540.094,551.616C540.041,551.616 539.99,551.635 539.95,551.67L539.75,551.87C539.717,551.9 539.674,551.917 539.629,551.917C539.53,551.917 539.449,551.835 539.449,551.737C539.449,551.731 539.449,551.725 539.45,551.72L539.5,551.34C539.56,550.873 539.36,550.587 538.9,550.48C538.713,550.44 538.703,550.227 538.87,549.84C538.957,549.653 539.05,549.47 539.15,549.29C539.61,548.517 539.627,547.76 539.2,547.02C537.787,544.6 536.91,542.367 536.57,540.32C536.497,539.847 536.343,539.543 536.11,539.41C535.823,539.243 535.44,539.193 534.96,539.26C533.92,536.687 532.07,534.78 529.41,533.54C529.35,533.32 529.453,533.06 529.72,532.76C530,532.447 529.93,532.28 529.51,532.26L528.61,532.22C528.197,532.2 528.153,532.06 528.48,531.8C531.087,529.793 533.83,528.017 536.71,526.47C539.49,524.97 541.503,523.587 542.75,522.32C544.99,520.047 546.737,517.587 547.99,514.94C556.377,508.06 561.643,499.877 563.79,490.39C564.763,484.763 563.037,481.417 558.61,480.35L561.75,477.69C561.766,477.672 561.775,477.648 561.775,477.624C561.775,477.569 561.73,477.524 561.675,477.524C561.663,477.524 561.651,477.526 561.64,477.53C561.22,477.75 560.81,477.733 560.41,477.48C560.09,477.273 560.093,477.077 560.42,476.89C561.647,476.177 563.003,475.987 564.49,476.32C564.771,476.385 565.062,476.372 565.33,476.28C570.34,474.61 570.71,469.66 571.12,464.85C571.127,464.723 571.077,464.69 570.97,464.75L570.66,464.93C570.632,464.949 570.599,464.959 570.566,464.959C570.472,464.959 570.396,464.882 570.396,464.789C570.396,464.765 570.4,464.742 570.41,464.72C572.33,459.773 572.44,455.327 570.74,451.38C567.68,446.073 563.82,443.253 559.16,442.92C558.387,443.013 557.923,442.707 557.77,442C557.46,440.54 558.66,440.28 557.68,438.6C557.55,438.372 557.355,438.187 557.12,438.07C555.78,437.41 554.79,436.54 554.15,435.46C557.65,437.5 559.84,434.66 561.62,431.83C563.8,431.13 564.69,430.323 564.29,429.41C567.443,426.997 568.837,423.62 568.47,419.28C569.97,419.447 570.77,418.373 570.87,416.06C570.903,415.213 570.613,414.037 570,412.53C569.1,410.297 568.96,408.163 569.58,406.13L572.61,408.45C572.87,408.643 572.997,408.9 572.99,409.22C572.94,411.85 577.42,413.31 579.47,414.23C583.21,415.92 584.27,412.76 586.75,411.19C587.597,410.65 588.463,410.137 589.35,409.65C589.657,409.483 589.763,409.23 589.67,408.89L589.44,407.97C589.347,407.617 589.46,407.35 589.78,407.17C592.207,405.797 594.113,403.963 595.5,401.67C605.833,390.11 607.617,376.683 600.85,361.39Z" style="fill:rgb(31,41,55);fill-rule:nonzero;stroke:rgb(31,41,55);stroke-width:1.54px;"/>
                </g>
                <g transform="matrix(-0.70249,0,0,0.587298,1205.6,1157.19)">
                    <path d="M487.05,370.02C492.177,380.28 500.327,385.773 511.5,386.5C514.94,386.727 518.017,385.543 520.73,382.95C520.863,382.95 520.987,383.087 521.1,383.36C520.067,384.607 518.727,385.59 517.08,386.31C516.86,386.41 516.737,386.58 516.71,386.82C516.623,387.747 516.387,388.643 516,389.51C515.86,389.837 515.623,390.057 515.29,390.17L511.61,391.41C511.297,391.517 510.977,391.55 510.65,391.51C508.923,391.29 507.447,391.587 506.22,392.4C504.84,391.333 503.62,390.35 502.56,389.45C502.207,389.15 501.807,388.99 501.36,388.97C501.027,388.963 500.737,388.853 500.49,388.64L492.78,382.12C492.473,381.86 492.353,381.533 492.42,381.14C492.68,379.607 492.04,378.193 490.5,376.9C488.66,374.553 487.51,372.26 487.05,370.02Z" style="fill:rgb(31,41,55);fill-rule:nonzero;stroke:rgb(31,41,55);stroke-width:1.54px;"/>
                </g>
                <g transform="matrix(-0.70249,0,0,0.587298,1205.6,1157.19)">
                    <path d="M522.85,371.17C524.97,375.703 524.387,379.767 521.1,383.36C520.987,383.087 520.863,382.95 520.73,382.95C524.15,379.67 523.03,375.27 522.85,371.17Z" style="fill:rgb(31,41,55);fill-rule:nonzero;stroke:rgb(31,41,55);stroke-width:1.54px;"/>
                </g>
                <g transform="matrix(-0.70249,0,0,0.587298,1205.6,1157.19)">
                    <path d="M490.5,376.9C492.04,378.193 492.68,379.607 492.42,381.14C492.353,381.533 492.473,381.86 492.78,382.12L500.49,388.64C500.737,388.853 501.027,388.963 501.36,388.97C501.807,388.99 502.207,389.15 502.56,389.45C503.62,390.35 504.84,391.333 506.22,392.4C510.293,393.64 514.633,393.64 519.24,392.4C519.687,392.28 519.763,392.397 519.47,392.75C518.917,393.41 518.82,394.08 519.18,394.76C518.613,396.213 517.77,397.467 516.65,398.52C512.663,408.327 515.607,415.72 525.48,420.7C525.773,420.847 526.04,420.81 526.28,420.59C526.893,420.017 527.59,419.843 528.37,420.07C528.723,420.177 528.967,420.403 529.1,420.75C530.04,423.29 530.33,425.923 529.97,428.65C526.637,428.743 523.797,430.2 521.45,433.02C517.91,432.65 515.13,433.36 512.01,431.31C512.123,431.257 512.223,431.18 512.31,431.08C512.497,430.867 512.487,430.663 512.28,430.47C510.83,429.08 512.05,427.89 512,426.52C511.933,424.593 511.303,422.853 510.11,421.3C509.908,421.04 509.793,420.722 509.78,420.39C509.667,416.23 508.607,412.59 506.6,409.47C501.05,401.24 494.19,399.04 484.53,399.82C484.69,399.08 485.027,398.547 485.54,398.22C485.807,398.053 485.99,397.82 486.09,397.52C487.18,394.28 489.72,392.59 489.8,388.65C489.86,385.72 484.88,376.79 490.5,376.9Z" style="fill:rgb(31,41,55);fill-rule:nonzero;stroke:rgb(31,41,55);stroke-width:1.54px;"/>
                </g>
                <g transform="matrix(-0.70249,0,0,0.587298,1205.6,1157.19)">
                    <path d="M414.1,389.35C413.1,396.05 412.35,401.18 416.41,407.02L419.52,412.53C420.141,413.636 419.75,415.057 418.65,415.69C415.19,417.68 408.22,413.74 404.9,411.75C400.107,407.643 397.87,402.507 398.19,396.34C398.97,390.533 401.913,386.433 407.02,384.04C411.77,381.82 414.65,384.38 414.1,389.35Z" style="fill:rgb(31,41,55);fill-rule:nonzero;stroke:rgb(31,41,55);stroke-width:1.54px;"/>
                </g>
                <g transform="matrix(-0.70249,0,0,0.587298,1205.6,1157.19)">
                    <path d="M543.19,383.85C548.417,384.743 552.74,387.017 556.16,390.67C557.32,391.93 557.853,393.29 557.76,394.75C557.734,395.097 557.529,395.406 557.22,395.56C553.26,397.53 548.53,398.01 544.92,401.55C540.8,405.59 539.47,412.6 535.13,416.36C529.63,421.12 522.36,419.97 518.15,414.13C514.85,409.563 514.35,404.36 516.65,398.52C517.77,397.467 518.613,396.213 519.18,394.76C521.84,391.353 524.937,388.617 528.47,386.55C533.25,383.823 538.157,382.923 543.19,383.85Z" style="fill:rgb(31,41,55);fill-rule:nonzero;stroke:rgb(31,41,55);stroke-width:1.54px;"/>
                </g>
                <g transform="matrix(-0.70249,0,0,0.587298,1205.6,1157.19)">
                    <path d="M558.83,393.75C558.01,392.183 557.12,391.157 556.16,390.67C552.74,387.017 548.417,384.743 543.19,383.85C547.26,382.88 549.77,384.42 553.41,385.65C556.65,386.75 559.29,389.36 562.47,390.89C563.93,391.59 564.78,392.49 566.07,393.42C566.357,393.62 566.5,393.897 566.5,394.25L566.5,398.71C566.5,399.28 566.03,399.75 565.46,399.75C565.192,399.75 564.934,399.646 564.74,399.46L558.83,393.75Z" style="fill:rgb(31,41,55);fill-rule:nonzero;stroke:rgb(31,41,55);stroke-width:1.54px;"/>
                </g>
                <g transform="matrix(-0.70249,0,0,0.587298,1205.6,1157.19)">
                    <path d="M482.24,387.25C482.293,387.163 482.39,387.257 482.53,387.53C482.63,387.717 482.59,387.873 482.41,388C480.277,389.453 476.997,391.307 472.57,393.56C466.717,396.54 461.193,401.547 456,408.58C462.12,397.16 471.74,392.92 482.24,387.25Z" style="fill:rgb(31,41,55);fill-rule:nonzero;stroke:rgb(31,41,55);stroke-width:1.54px;"/>
                </g>
                <g transform="matrix(-0.70249,0,0,0.587298,1205.6,1157.19)">
                    <path d="M558.83,393.75C557,397.45 553.1,398.2 549.68,399.42C543.56,401.61 539.73,410.66 537,416.19C536.59,417.02 536.67,417.52 537.13,418.25C537.311,418.546 537.242,418.934 536.97,419.15L531.42,423.53C531.187,423.717 531.037,423.953 530.97,424.24C530.61,425.753 530.6,427.37 530.94,429.09C530.54,429.043 530.217,428.897 529.97,428.65C530.33,425.923 530.04,423.29 529.1,420.75C528.967,420.403 528.723,420.177 528.37,420.07C527.59,419.843 526.893,420.017 526.28,420.59C526.04,420.81 525.773,420.847 525.48,420.7C515.607,415.72 512.663,408.327 516.65,398.52C514.35,404.36 514.85,409.563 518.15,414.13C522.36,419.97 529.63,421.12 535.13,416.36C539.47,412.6 540.8,405.59 544.92,401.55C548.53,398.01 553.26,397.53 557.22,395.56C557.529,395.406 557.734,395.097 557.76,394.75C557.853,393.29 557.32,391.93 556.16,390.67C557.12,391.157 558.01,392.183 558.83,393.75Z" style="fill:rgb(31,41,55);fill-rule:nonzero;stroke:rgb(31,41,55);stroke-width:1.54px;"/>
                </g>
                <g transform="matrix(-0.70249,0,0,0.587298,1205.6,1157.19)">
                    <path d="M484.53,399.82C494.19,399.04 501.05,401.24 506.6,409.47C508.62,413.73 509.333,418.233 508.74,422.98C508.34,426.17 507.58,429.26 508.7,432.43C511.45,440.2 509.93,447.29 503.13,452.4C487.86,463.87 467.65,455.12 460.82,438.81C457.753,425.283 461.29,414.123 471.43,405.33C475.457,402.437 479.823,400.6 484.53,399.82Z" style="fill:rgb(31,41,55);fill-rule:nonzero;stroke:rgb(31,41,55);stroke-width:1.54px;"/>
                </g>
                <g transform="matrix(-0.70249,0,0,0.587298,1205.6,1157.19)">
                    <path d="M416.41,407.02C420.25,408.02 422.92,415.89 420.65,419.09C420.49,419.317 420.27,419.443 419.99,419.47L414.42,419.93C414.397,419.932 414.374,419.933 414.351,419.933C413.874,419.933 413.481,419.54 413.481,419.063C413.481,418.988 413.491,418.913 413.51,418.84C413.63,418.353 413.597,417.93 413.41,417.57C413.243,417.263 412.893,417.013 412.36,416.82C409.287,415.7 406.8,414.01 404.9,411.75C408.22,413.74 415.19,417.68 418.65,415.69C419.75,415.057 420.141,413.636 419.52,412.53L416.41,407.02Z" style="fill:rgb(31,41,55);fill-rule:nonzero;stroke:rgb(31,41,55);stroke-width:1.54px;"/>
                </g>
                <g transform="matrix(-0.70249,0,0,0.587298,1205.6,1157.19)">
                    <path d="M512.01,431.31C511.057,430.997 510.407,430.913 510.06,431.06C509.632,431.242 509.353,431.663 509.353,432.128C509.353,432.654 509.711,433.117 510.22,433.25C513.94,434.217 517.447,434.67 520.74,434.61C520.193,436.597 520.127,438.59 520.54,440.59C518.133,439.65 515.62,439.69 513,440.71C511.42,441.323 510.88,442.453 511.38,444.1C511.473,444.393 511.67,444.563 511.97,444.61C515.403,445.11 518.65,444.78 521.71,443.62C527.377,448.74 532.75,448.71 537.83,443.53C539.79,441.54 539.49,439.56 538.97,437.06C541.377,436.68 543.72,436.33 546,436.01C547.773,435.763 548.507,436.497 548.2,438.21C548.059,438.983 547.429,439.58 546.65,439.68L541.24,440.38C540.967,440.418 540.725,440.576 540.58,440.81L538.29,444.43C538.157,444.643 538.183,444.837 538.37,445.01L543.33,449.65C543.62,449.917 543.786,450.294 543.786,450.688C543.786,451.462 543.149,452.098 542.376,452.098C542.266,452.098 542.157,452.085 542.05,452.06L533.5,450.06C533.287,450.008 533.065,450.029 532.87,450.12L531.14,450.94C530.86,451.067 530.767,451.28 530.86,451.58L532.66,457.2C532.333,457.48 531.973,457.58 531.58,457.5C531.249,457.434 531.007,457.142 531,456.8C530.953,455.08 530.237,453.793 528.85,452.94C528.585,452.776 528.408,452.5 528.37,452.19C528.277,451.497 528.013,451.067 527.58,450.9C526.033,450.293 524.63,449.43 523.37,448.31C523.13,448.097 522.85,447.997 522.53,448.01C520.21,448.09 518.33,446.91 516.33,447.65C514.51,448.31 513.58,449.72 512,450.46C509.507,451.613 507.237,453.113 505.19,454.96C504.97,455.153 504.717,455.243 504.43,455.23C503.663,455.203 503.08,455.54 502.68,456.24C502.509,456.548 502.265,456.807 501.97,456.99C496.11,460.79 492.01,463.47 486.28,463.8C486.167,463.807 484.783,463.97 482.13,464.29C479.55,464.59 476.68,464.167 473.52,463.02L470.98,461.96C470.68,461.833 470.507,461.607 470.46,461.28C470.09,458.76 470.56,451.3 467.42,451.05C467.127,451.023 466.893,451.13 466.72,451.37C465.78,452.637 465.337,454.097 465.39,455.75C465.583,453.47 464.973,451.687 463.56,450.4C463.307,450.173 463.2,449.89 463.24,449.55C463.52,446.93 461,442.2 459.87,439.77C459.867,439.763 459.863,439.755 459.86,439.748C459.751,439.479 459.877,439.168 460.142,439.061C460.151,439.057 460.16,439.053 460.17,439.05L460.82,438.81C467.65,455.12 487.86,463.87 503.13,452.4C509.93,447.29 511.45,440.2 508.7,432.43C507.58,429.26 508.34,426.17 508.74,422.98C509.333,418.233 508.62,413.73 506.6,409.47C508.607,412.59 509.667,416.23 509.78,420.39C509.793,420.722 509.908,421.04 510.11,421.3C511.303,422.853 511.933,424.593 512,426.52C512.05,427.89 510.83,429.08 512.28,430.47C512.487,430.663 512.497,430.867 512.31,431.08C512.223,431.18 512.123,431.257 512.01,431.31Z" style="fill:rgb(31,41,55);fill-rule:nonzero;stroke:rgb(31,41,55);stroke-width:1.54px;"/>
                </g>
                <g transform="matrix(-0.70249,0,0,0.587298,1205.6,1157.19)">
                    <path d="M568.47,419.28C568.837,423.62 567.443,426.997 564.29,429.41C557.19,434.02 547.71,432.1 544.62,423.73C543.79,405.98 564.48,404.16 568.47,419.28Z" style="fill:rgb(31,41,55);fill-rule:nonzero;stroke:rgb(31,41,55);stroke-width:1.54px;"/>
                </g>
                <g transform="matrix(-0.70249,0,0,0.587298,1205.6,1157.19)">
                    <path d="M448.43,435.95C445.47,448.62 435.55,446.15 427.34,441.19C424.88,439.71 417.97,442.97 415.06,443.8C403.79,446.98 392.17,440.57 391.01,428.29C390.503,422.803 391.69,417.713 394.57,413.02C394.625,412.932 394.688,412.849 394.758,412.772C395.361,412.119 396.391,412.075 397.04,412.674C397.118,412.745 397.188,412.824 397.25,412.91C402.977,420.723 410.923,424.687 421.09,424.8C425.02,424.85 425.88,424.07 429.77,421.76C439.26,416.13 448.91,426.75 448.43,435.95Z" style="fill:rgb(31,41,55);fill-rule:nonzero;stroke:rgb(31,41,55);stroke-width:1.54px;"/>
                </g>
                <g transform="matrix(-0.70249,0,0,0.587298,1205.6,1157.19)">
                    <path d="M544.62,423.73C547.71,432.1 557.19,434.02 564.29,429.41C564.69,430.323 563.8,431.13 561.62,431.83C556.153,433.877 551.133,432.887 546.56,428.86L545.52,427.43L544.84,426.33C544.66,426.05 544.417,425.97 544.11,426.09C543.457,426.343 543.177,426.9 543.27,427.76L537.53,432.62L535.98,431.33C539.5,430.637 542.38,428.103 544.62,423.73Z" style="fill:rgb(31,41,55);fill-rule:nonzero;stroke:rgb(31,41,55);stroke-width:1.54px;"/>
                </g>
                <g transform="matrix(-0.70249,0,0,0.587298,1205.6,1157.19)">
                    <path d="M545.52,427.43L543.27,427.76C543.177,426.9 543.457,426.343 544.11,426.09C544.417,425.97 544.66,426.05 544.84,426.33L545.52,427.43Z" style="fill:rgb(31,41,55);fill-rule:nonzero;stroke:rgb(31,41,55);stroke-width:1.54px;"/>
                </g>
                <g transform="matrix(-0.70249,0,0,0.587298,1205.6,1157.19)">
                    <path d="M545.52,427.43L546.56,428.86L546.25,430.32C546.197,430.58 546.283,430.777 546.51,430.91L554.15,435.46C554.79,436.54 555.78,437.41 557.12,438.07C557.355,438.187 557.55,438.372 557.68,438.6C558.66,440.28 557.46,440.54 557.77,442C557.923,442.707 558.387,443.013 559.16,442.92C550.6,442.43 545.17,449.75 545.61,457.74C544.957,457.493 544.663,457.983 544.73,459.21C544.75,459.577 544.577,459.76 544.21,459.76L533.76,459.73C533.093,459.963 532.727,459.12 532.66,457.2L530.86,451.58C530.767,451.28 530.86,451.067 531.14,450.94L532.87,450.12C533.065,450.029 533.287,450.008 533.5,450.06L542.05,452.06C542.157,452.085 542.266,452.098 542.376,452.098C543.149,452.098 543.786,451.462 543.786,450.688C543.786,450.294 543.62,449.917 543.33,449.65L538.37,445.01C538.183,444.837 538.157,444.643 538.29,444.43L540.58,440.81C540.725,440.576 540.967,440.418 541.24,440.38L546.65,439.68C547.429,439.58 548.059,438.983 548.2,438.21C548.507,436.497 547.773,435.763 546,436.01C543.72,436.33 541.377,436.68 538.97,437.06L537.53,432.62L543.27,427.76L545.52,427.43Z" style="fill:rgb(31,41,55);fill-rule:nonzero;stroke:rgb(31,41,55);stroke-width:1.54px;"/>
                </g>
                <g transform="matrix(-0.70249,0,0,0.587298,1205.6,1157.19)">
                    <path d="M391.01,428.29C392.17,440.57 403.79,446.98 415.06,443.8C417.97,442.97 424.88,439.71 427.34,441.19C435.55,446.15 445.47,448.62 448.43,435.95C449.077,438.297 448.943,440.733 448.03,443.26C447.79,443.933 446.9,444.84 445.36,445.98C445.113,446.167 444.837,446.253 444.53,446.24C443.857,446.22 443.223,446.377 442.63,446.71C442.317,446.89 442.227,447.147 442.36,447.48C442.44,447.687 442.553,447.86 442.7,448C442.727,448.413 442.867,448.83 443.12,449.25C442.34,449.543 441.893,449.86 441.78,450.2C441.687,450.493 441.487,450.633 441.18,450.62L429.32,450.13C429.02,450.117 428.79,450.237 428.63,450.49C428.103,451.303 427.593,451.733 427.1,451.78C421.473,450.813 416.017,451.537 410.73,453.95L409.04,453.73C408.82,453.703 408.783,453.607 408.93,453.44C409.577,452.713 410.373,452.263 411.32,452.09C412.227,451.923 412.233,451.82 411.34,451.78C410.18,451.72 406.6,449.57 404.61,448.87C401.217,447.677 398.803,445.36 397.37,441.92C397.243,441.613 397.05,441.35 396.79,441.13C393.03,437.997 390.76,433.843 389.98,428.67C390.167,428.61 390.333,428.457 390.48,428.21C390.553,428.09 390.65,428.063 390.77,428.13C390.843,428.17 390.923,428.223 391.01,428.29Z" style="fill:rgb(31,41,55);fill-rule:nonzero;stroke:rgb(31,41,55);stroke-width:1.54px;"/>
                </g>
                <g transform="matrix(-0.70249,0,0,0.587298,1205.6,1157.19)">
                    <path d="M529.97,428.65C530.217,428.897 530.54,429.043 530.94,429.09L535.98,431.33L537.53,432.62L538.97,437.06C539.49,439.56 539.79,441.54 537.83,443.53C532.75,448.71 527.377,448.74 521.71,443.62L520.54,440.59C520.127,438.59 520.193,436.597 520.74,434.61L521.45,433.02C523.797,430.2 526.637,428.743 529.97,428.65Z" style="fill:rgb(31,41,55);fill-rule:nonzero;stroke:rgb(31,41,55);stroke-width:1.54px;"/>
                </g>
                <g transform="matrix(-0.70249,0,0,0.587298,1205.6,1157.19)">
                    <path d="M512.01,431.31C515.13,433.36 517.91,432.65 521.45,433.02L520.74,434.61C517.447,434.67 513.94,434.217 510.22,433.25C509.711,433.117 509.353,432.654 509.353,432.128C509.353,431.663 509.632,431.242 510.06,431.06C510.407,430.913 511.057,430.997 512.01,431.31Z" style="fill:rgb(31,41,55);fill-rule:nonzero;stroke:rgb(31,41,55);stroke-width:1.54px;"/>
                </g>
                <g transform="matrix(-0.70249,0,0,0.587298,1205.6,1157.19)">
                    <path d="M520.54,440.59L521.71,443.62C518.65,444.78 515.403,445.11 511.97,444.61C511.67,444.563 511.473,444.393 511.38,444.1C510.88,442.453 511.42,441.323 513,440.71C515.62,439.69 518.133,439.65 520.54,440.59Z" style="fill:rgb(31,41,55);fill-rule:nonzero;stroke:rgb(31,41,55);stroke-width:1.54px;"/>
                </g>
                <g transform="matrix(-0.70249,0,0,0.587298,1205.6,1157.19)">
                    <path d="M559.16,442.92C563.82,443.253 567.68,446.073 570.74,451.38C572.087,456.92 571.087,461.473 567.74,465.04C559.19,470.7 548.21,468.15 545.61,457.74C545.17,449.75 550.6,442.43 559.16,442.92Z" style="fill:rgb(31,41,55);fill-rule:nonzero;stroke:rgb(31,41,55);stroke-width:1.54px;"/>
                </g>
                <g transform="matrix(-0.70249,0,0,0.587298,1205.6,1157.19)">
                    <path d="M465.39,455.75C465.337,454.097 465.78,452.637 466.72,451.37C466.893,451.13 467.127,451.023 467.42,451.05C470.56,451.3 470.09,458.76 470.46,461.28C470.507,461.607 470.68,461.833 470.98,461.96L473.52,463.02C476.66,465.587 478.573,468.407 479.26,471.48C479.2,474.22 479.45,476.64 477.68,478.9C474.327,483.16 470.057,485.15 464.87,484.87C455.643,482.197 452.45,476.58 455.29,468.02C455.39,467.733 455.337,467.48 455.13,467.26C450.157,461.927 446.153,455.923 443.12,449.25C442.867,448.83 442.727,448.413 442.7,448C442.98,447.567 443.29,447.323 443.63,447.27C444.196,447.185 444.765,447.444 445.08,447.93L456.45,465.5C456.637,465.793 456.857,465.817 457.11,465.57C459.657,463.11 462.687,461.63 466.2,461.13C466.673,461.063 466.703,460.907 466.29,460.66L465.94,460.45C465.707,460.31 465.587,460.107 465.58,459.84L465.39,455.75Z" style="fill:rgb(31,41,55);fill-rule:nonzero;stroke:rgb(31,41,55);stroke-width:1.54px;"/>
                </g>
                <g transform="matrix(-0.70249,0,0,0.587298,1205.6,1157.19)">
                    <path d="M532.66,457.2C532.727,459.12 533.093,459.963 533.76,459.73C533.953,461.043 534.607,461.683 535.72,461.65C536.087,462.49 535.98,463.22 535.4,463.84C533.513,461.147 531.12,459.52 528.22,458.96L528.81,456.12C528.89,455.72 528.75,455.43 528.39,455.25L525.97,454.03C525.717,453.903 525.533,453.71 525.42,453.45C523.45,448.94 519.77,451.57 518.04,454.46C517.873,454.733 517.647,454.943 517.36,455.09C516.713,455.423 516.52,456.127 516.78,457.2C508.053,458.113 500.847,461.697 495.16,467.95L479.84,467.11C479.82,467.109 479.8,467.108 479.779,467.108C479.203,467.108 478.729,467.582 478.729,468.158C478.729,468.243 478.74,468.328 478.76,468.41L479.55,471.67C479.457,471.61 479.36,471.547 479.26,471.48C478.573,468.407 476.66,465.587 473.52,463.02C476.68,464.167 479.55,464.59 482.13,464.29C484.783,463.97 486.167,463.807 486.28,463.8C492.01,463.47 496.11,460.79 501.97,456.99C502.265,456.807 502.509,456.548 502.68,456.24C503.08,455.54 503.663,455.203 504.43,455.23C504.717,455.243 504.97,455.153 505.19,454.96C507.237,453.113 509.507,451.613 512,450.46C513.58,449.72 514.51,448.31 516.33,447.65C518.33,446.91 520.21,448.09 522.53,448.01C522.85,447.997 523.13,448.097 523.37,448.31C524.63,449.43 526.033,450.293 527.58,450.9C528.013,451.067 528.277,451.497 528.37,452.19C528.408,452.5 528.585,452.776 528.85,452.94C530.237,453.793 530.953,455.08 531,456.8C531.007,457.142 531.249,457.434 531.58,457.5C531.973,457.58 532.333,457.48 532.66,457.2Z" style="fill:rgb(31,41,55);fill-rule:nonzero;stroke:rgb(31,41,55);stroke-width:1.54px;"/>
                </g>
                <g transform="matrix(-0.70249,0,0,0.587298,1205.6,1157.19)">
                    <path d="M443.12,449.25C446.153,455.923 450.157,461.927 455.13,467.26C455.337,467.48 455.39,467.733 455.29,468.02C452.45,476.58 455.643,482.197 464.87,484.87C464.443,485.817 465.263,486.34 467.33,486.44C470.19,486.58 475.44,482.45 477.72,480.65C477.994,480.437 478.366,480.402 478.67,480.56C480.623,481.58 482.227,483.02 483.48,484.88C483.533,484.96 483.613,485 483.72,485L483.98,485C484.14,485 484.18,484.93 484.1,484.79C483,482.823 481.567,481.157 479.8,479.79C479.236,479.359 478.905,478.689 478.905,477.979C478.905,476.813 479.8,475.825 480.96,475.71L489.72,474.83C486.54,482.043 485.53,489.733 486.69,497.9C488.023,504.173 491.127,509.67 496,514.39C496.207,514.59 496.257,514.82 496.15,515.08C495.957,515.573 496.09,516.213 496.55,517C498.83,520.9 500.59,523.55 504.19,525.59C506.46,526.87 508.98,530.39 511.54,530.85C511.86,530.903 512.153,531.027 512.42,531.22C514.533,532.733 517.243,533.563 520.55,533.71L517.15,536.39C515.85,535.437 514.573,534.663 513.32,534.07C509.26,532.15 505.89,529.41 502.1,526.84C501.5,526.43 500.695,526.458 500.12,526.91C499.067,527.743 499.147,528.737 500.36,529.89C500.227,529.803 500.093,529.72 499.96,529.64C497.093,527.327 493.75,525.353 489.93,523.72C485.91,520.1 483.43,516.613 482.49,513.26C481.237,508.78 479.187,505.603 476.34,503.73C464.19,495.04 451.19,502.59 446.32,514.91C443,523.31 443.953,531.6 449.18,539.78C449.373,540.44 449.293,541.04 448.94,541.58C444.92,537.73 444.23,533.08 442.81,528.94C442.764,528.822 442.747,528.691 442.76,528.56C443.1,525.23 443.52,517.17 441.4,513.41C441.233,513.117 441.033,513.09 440.8,513.33L440.57,513.55C440.539,513.584 440.496,513.603 440.45,513.603C440.361,513.603 440.287,513.529 440.287,513.44C440.287,513.399 440.302,513.36 440.33,513.33C441.063,512.45 441.54,511.437 441.76,510.29C441.811,510.004 441.982,509.752 442.23,509.6C444.477,508.22 445.547,506.283 445.44,503.79C445.627,502.97 446.307,501.603 447.48,499.69C448.3,498.357 448.463,496.87 447.97,495.23C448.57,488.77 445.66,485.11 443.45,479.83C442.24,476.93 443.97,473.3 443.57,470.19C442.297,460.257 436.807,454.12 427.1,451.78C427.593,451.733 428.103,451.303 428.63,450.49C428.79,450.237 429.02,450.117 429.32,450.13L441.18,450.62C441.487,450.633 441.687,450.493 441.78,450.2C441.893,449.86 442.34,449.543 443.12,449.25ZM464.32,499.26C465.333,499.4 466.377,499.357 467.45,499.13C467.763,499.07 467.923,498.88 467.93,498.56C468.01,495.11 468.39,486.25 464.25,488.05C463.93,488.19 463.803,488.433 463.87,488.78C464.603,492.307 464.53,495.823 463.65,499.33C463.603,499.503 463.657,499.547 463.81,499.46L464.13,499.29C464.19,499.263 464.253,499.253 464.32,499.26Z" style="fill:rgb(31,41,55);fill-rule:nonzero;stroke:rgb(31,41,55);stroke-width:1.54px;"/>
                </g>
                <g transform="matrix(-0.70249,0,0,0.587298,1205.6,1157.19)">
                    <path d="M427.1,451.78C436.807,454.12 442.297,460.257 443.57,470.19C443.97,473.3 442.24,476.93 443.45,479.83C445.66,485.11 448.57,488.77 447.97,495.23C442.08,515.95 418.02,514.35 404.12,503.59C388.58,489.37 390.52,462.94 410.73,453.95C416.017,451.537 421.473,450.813 427.1,451.78Z" style="fill:rgb(31,41,55);fill-rule:nonzero;stroke:rgb(31,41,55);stroke-width:1.54px;"/>
                </g>
                <g transform="matrix(-0.70249,0,0,0.587298,1205.6,1157.19)">
                    <path d="M528.22,458.96C524.46,457.727 520.647,457.14 516.78,457.2C516.52,456.127 516.713,455.423 517.36,455.09C517.647,454.943 517.873,454.733 518.04,454.46C519.77,451.57 523.45,448.94 525.42,453.45C525.533,453.71 525.717,453.903 525.97,454.03L528.39,455.25C528.75,455.43 528.89,455.72 528.81,456.12L528.22,458.96Z" style="fill:rgb(31,41,55);fill-rule:nonzero;stroke:rgb(31,41,55);stroke-width:1.54px;"/>
                </g>
                <g transform="matrix(-0.70249,0,0,0.587298,1205.6,1157.19)">
                    <path d="M570.74,451.38C572.44,455.327 572.33,459.773 570.41,464.72C570.4,464.742 570.396,464.765 570.396,464.789C570.396,464.882 570.472,464.959 570.566,464.959C570.599,464.959 570.632,464.949 570.66,464.93L570.97,464.75C571.077,464.69 571.127,464.723 571.12,464.85C570.71,469.66 570.34,474.61 565.33,476.28C565.062,476.372 564.771,476.385 564.49,476.32C563.003,475.987 561.647,476.177 560.42,476.89C560.093,477.077 560.09,477.273 560.41,477.48C560.81,477.733 561.22,477.75 561.64,477.53C561.651,477.526 561.663,477.524 561.675,477.524C561.73,477.524 561.775,477.569 561.775,477.624C561.775,477.648 561.766,477.672 561.75,477.69L558.61,480.35C543.72,478.95 542.81,475.31 535.4,463.84C535.98,463.22 536.087,462.49 535.72,461.65C538.833,462.203 541.93,462.667 545.01,463.04C547.31,463.32 549.3,465.94 551.24,467.03C557.293,470.43 562.793,469.767 567.74,465.04C571.087,461.473 572.087,456.92 570.74,451.38Z" style="fill:rgb(31,41,55);fill-rule:nonzero;stroke:rgb(31,41,55);stroke-width:1.54px;"/>
                </g>
                <g transform="matrix(-0.70249,0,0,0.587298,1205.6,1157.19)">
                    <path d="M528.22,458.96C531.12,459.52 533.513,461.147 535.4,463.84C542.81,475.31 543.72,478.95 558.61,480.35C563.037,481.417 564.763,484.763 563.79,490.39C559.797,502.69 552.647,511.783 542.34,517.67C521.75,529.43 494.34,522.13 486.69,497.9C485.53,489.733 486.54,482.043 489.72,474.83L492.06,471.24L495.16,467.95C500.847,461.697 508.053,458.113 516.78,457.2C520.647,457.14 524.46,457.727 528.22,458.96Z" style="fill:rgb(31,41,55);fill-rule:nonzero;stroke:rgb(31,41,55);stroke-width:1.54px;"/>
                </g>
                <g transform="matrix(-0.70249,0,0,0.587298,1205.6,1157.19)">
                    <path d="M495.16,467.95L492.06,471.24C487.767,472.167 483.597,472.31 479.55,471.67L478.76,468.41C478.74,468.328 478.729,468.243 478.729,468.158C478.729,467.582 479.203,467.108 479.779,467.108C479.8,467.108 479.82,467.109 479.84,467.11L495.16,467.95Z" style="fill:rgb(31,41,55);fill-rule:nonzero;stroke:rgb(31,41,55);stroke-width:1.54px;"/>
                </g>
                <g transform="matrix(-0.70249,0,0,0.587298,1205.6,1157.19)">
                    <path d="M492.06,471.24L489.72,474.83L480.96,475.71C479.8,475.825 478.905,476.813 478.905,477.979C478.905,478.689 479.236,479.359 479.8,479.79C481.567,481.157 483,482.823 484.1,484.79C484.18,484.93 484.14,485 483.98,485L483.72,485C483.613,485 483.533,484.96 483.48,484.88C482.227,483.02 480.623,481.58 478.67,480.56C478.366,480.402 477.994,480.437 477.72,480.65C475.44,482.45 470.19,486.58 467.33,486.44C465.263,486.34 464.443,485.817 464.87,484.87C470.057,485.15 474.327,483.16 477.68,478.9C479.45,476.64 479.2,474.22 479.26,471.48C479.36,471.547 479.457,471.61 479.55,471.67C483.597,472.31 487.767,472.167 492.06,471.24Z" style="fill:rgb(31,41,55);fill-rule:nonzero;stroke:rgb(31,41,55);stroke-width:1.54px;"/>
                </g>
                <g transform="matrix(-0.70249,0,0,0.587298,1205.6,1157.19)">
                    <path d="M464.13,499.29L463.81,499.46C463.657,499.547 463.603,499.503 463.65,499.33C464.53,495.823 464.603,492.307 463.87,488.78C463.803,488.433 463.93,488.19 464.25,488.05C468.39,486.25 468.01,495.11 467.93,498.56C467.923,498.88 467.763,499.07 467.45,499.13C466.377,499.357 465.333,499.4 464.32,499.26C464.253,499.253 464.19,499.263 464.13,499.29Z" style="fill:rgb(31,41,55);fill-rule:nonzero;stroke:rgb(31,41,55);stroke-width:1.54px;"/>
                </g>
                <g transform="matrix(-0.70249,0,0,0.587298,1205.6,1157.19)">
                    <path d="M563.79,490.39C561.643,499.877 556.377,508.06 547.99,514.94L545.35,516.94C545.103,517.133 544.937,517.38 544.85,517.68C543.54,522.49 536.46,524.08 534.23,527.16C534.036,527.425 533.755,527.609 533.44,527.68C531.093,528.22 529.103,529.353 527.47,531.08C527.243,531.32 526.98,531.51 526.68,531.65L523.75,533L520.55,533.71C517.243,533.563 514.533,532.733 512.42,531.22C512.153,531.027 511.86,530.903 511.54,530.85C508.98,530.39 506.46,526.87 504.19,525.59C500.59,523.55 498.83,520.9 496.55,517C496.09,516.213 495.957,515.573 496.15,515.08C496.257,514.82 496.207,514.59 496,514.39C491.127,509.67 488.023,504.173 486.69,497.9C494.34,522.13 521.75,529.43 542.34,517.67C552.647,511.783 559.797,502.69 563.79,490.39Z" style="fill:rgb(31,41,55);fill-rule:nonzero;stroke:rgb(31,41,55);stroke-width:1.54px;"/>
                </g>
                <g transform="matrix(-0.70249,0,0,0.587298,1205.6,1157.19)">
                    <path d="M445.44,503.79C442.88,505.623 441.09,507.94 440.07,510.74C439.96,511.052 439.753,511.318 439.48,511.5C438.2,512.36 436.73,514.19 435.26,514.31C434.933,514.337 434.627,514.427 434.34,514.58C424.81,519.75 415.68,515.9 408.11,509.62C405.583,507.527 404.253,505.517 404.12,503.59C418.02,514.35 442.08,515.95 447.97,495.23C448.463,496.87 448.3,498.357 447.48,499.69C446.307,501.603 445.627,502.97 445.44,503.79Z" style="fill:rgb(31,41,55);fill-rule:nonzero;stroke:rgb(31,41,55);stroke-width:1.54px;"/>
                </g>
                <g transform="matrix(-0.70249,0,0,0.587298,1205.6,1157.19)">
                    <path d="M476.34,503.73C482.85,510.13 480.68,518.85 489.93,523.72C493.75,525.353 497.093,527.327 499.96,529.64C505.83,542.19 492.49,551.98 481.32,552.88C468.247,553.94 457.533,549.573 449.18,539.78C443.953,531.6 443,523.31 446.32,514.91C451.19,502.59 464.19,495.04 476.34,503.73Z" style="fill:rgb(31,41,55);fill-rule:nonzero;stroke:rgb(31,41,55);stroke-width:1.54px;"/>
                </g>
                <g transform="matrix(-0.70249,0,0,0.587298,1205.6,1157.19)">
                    <path d="M476.34,503.73C479.187,505.603 481.237,508.78 482.49,513.26C483.43,516.613 485.91,520.1 489.93,523.72C480.68,518.85 482.85,510.13 476.34,503.73Z" style="fill:rgb(31,41,55);fill-rule:nonzero;stroke:rgb(31,41,55);stroke-width:1.54px;"/>
                </g>
                <g transform="matrix(-0.70249,0,0,0.587298,1205.6,1157.19)">
                    <path d="M547.99,514.94C546.737,517.587 544.99,520.047 542.75,522.32C541.503,523.587 539.49,524.97 536.71,526.47C533.83,528.017 531.087,529.793 528.48,531.8C528.153,532.06 528.197,532.2 528.61,532.22L529.51,532.26C529.93,532.28 530,532.447 529.72,532.76C529.453,533.06 529.35,533.32 529.41,533.54L523.75,533L526.68,531.65C526.98,531.51 527.243,531.32 527.47,531.08C529.103,529.353 531.093,528.22 533.44,527.68C533.755,527.609 534.036,527.425 534.23,527.16C536.46,524.08 543.54,522.49 544.85,517.68C544.937,517.38 545.103,517.133 545.35,516.94L547.99,514.94Z" style="fill:rgb(31,41,55);fill-rule:nonzero;stroke:rgb(31,41,55);stroke-width:1.54px;"/>
                </g>
                <g transform="matrix(-0.70249,0,0,0.587298,1205.6,1157.19)">
                    <path d="M570.68,526.89C566.96,531.13 562.83,535.93 560.02,540.84C557.33,545.54 556.83,552.52 556.91,557.82C556.97,561.67 556.25,564.8 555.65,568.42C555.18,571.24 556.07,574.24 557.01,576.53C560.597,585.257 564.933,592.833 570.02,599.26C571.353,600.94 572.257,602.443 572.73,603.77C572.843,604.09 573.043,604.347 573.33,604.54C575.18,605.76 575.07,608.07 575.82,609.57C577.07,612.08 578.06,613.97 579.95,616.47C580.65,617.39 581.183,618.403 581.55,619.51C581.663,619.837 581.873,620.077 582.18,620.23C583.14,620.71 583.927,621.367 584.54,622.2C585.987,624.16 588.01,626.053 590.61,627.88C591.057,628.193 591.16,628.617 590.92,629.15C590.793,629.45 590.89,629.623 591.21,629.67C591.83,629.757 592.14,630.07 592.14,630.61C577.73,632.99 573.17,644.17 570.87,657.04L570.7,655.76C570.667,655.507 570.53,655.417 570.29,655.49C570.19,655.523 570.09,655.557 569.99,655.59C569.963,655.597 569.95,655.617 569.95,655.65C570.103,656.643 569.853,657.187 569.2,657.28C565.29,657.83 564.79,656.07 563.49,652.47C563.063,651.283 562.387,650.083 561.46,648.87C559.653,646.49 558.347,643.843 557.54,640.93C557.449,640.581 557.241,640.274 556.95,640.06C555.663,639.08 554.763,637.823 554.25,636.29C554.143,635.977 553.97,635.707 553.73,635.48C552.04,633.92 550.93,632.8 550.03,630.49C548.54,626.63 545.59,624.52 544.05,620.91C542.96,618.34 540.57,612.81 537.86,611.24C537.6,611.08 537.407,610.863 537.28,610.59C536.58,609.063 535.833,607.56 535.04,606.08C532.23,600.86 527.02,596.26 525.84,590.34C525.773,589.987 525.627,589.673 525.4,589.4C523.9,587.56 523.257,585.437 523.47,583.03C523.496,582.745 523.425,582.459 523.27,582.22C522.423,580.927 522.127,579.513 522.38,577.98C522.453,577.56 522.42,577.15 522.28,576.75C521.98,575.897 521.917,575.043 522.09,574.19C522.163,573.823 522.353,573.53 522.66,573.31L529.82,568.15C530.574,567.609 531.542,567.453 532.43,567.73C535.077,568.557 537.767,568.65 540.5,568.01C540.536,568.003 540.572,567.982 540.599,567.951C540.654,567.887 540.658,567.798 540.607,567.753C540.582,567.731 540.547,567.723 540.51,567.73C540.417,567.743 540.327,567.75 540.24,567.75C539.947,567.75 539.92,567.667 540.16,567.5C540.753,567.073 541.76,566.547 543.18,565.92C548.21,563.68 547.82,555.89 546.49,551.26C545.857,549.053 545.62,545.89 545.78,541.77C545.793,541.465 545.902,541.174 546.09,540.94C548.56,537.83 551.77,537.79 554.13,535.94C554.27,535.827 554.37,535.857 554.43,536.03C554.463,536.137 554.497,536.24 554.53,536.34C554.59,536.513 554.7,536.55 554.86,536.45C560.207,532.983 564.663,528.593 568.23,523.28C568.296,523.176 568.412,523.113 568.535,523.113C568.734,523.113 568.897,523.276 568.897,523.475C568.897,523.544 568.877,523.612 568.84,523.67L565.02,529.74C564.987,529.793 564.997,529.803 565.05,529.77C567.16,528.37 568.22,525.87 570.8,524.81C571.32,524.603 571.413,524.723 571.08,525.17C570.44,526.043 570.307,526.617 570.68,526.89Z" style="fill:rgb(31,41,55);fill-rule:nonzero;stroke:rgb(31,41,55);stroke-width:1.54px;"/>
                </g>
                <g transform="matrix(-0.70249,0,0,0.587298,1205.6,1157.19)">
                    <path d="M517.15,536.39C514.763,539.037 514.017,542.26 514.91,546.06C513.79,545.947 512.923,545.347 512.31,544.26C512.173,544.004 511.886,543.863 511.6,543.91C508.35,544.42 507.19,541.1 505.17,539.3C504.912,539.068 504.748,538.751 504.71,538.41C504.543,536.89 503.847,536.193 502.62,536.32C502.627,533.78 501.873,531.637 500.36,529.89C499.147,528.737 499.067,527.743 500.12,526.91C500.695,526.458 501.5,526.43 502.1,526.84C505.89,529.41 509.26,532.15 513.32,534.07C514.573,534.663 515.85,535.437 517.15,536.39Z" style="fill:rgb(31,41,55);fill-rule:nonzero;stroke:rgb(31,41,55);stroke-width:1.54px;"/>
                </g>
                <g transform="matrix(-0.70249,0,0,0.587298,1205.6,1157.19)">
                    <path d="M499.96,529.64C500.093,529.72 500.227,529.803 500.36,529.89C501.873,531.637 502.627,533.78 502.62,536.32C501.83,539.36 501.07,541.81 498.91,544.34C496.217,547.493 493.807,550.813 491.68,554.3C491.669,554.323 491.664,554.349 491.664,554.375C491.664,554.473 491.745,554.555 491.844,554.555C491.882,554.555 491.919,554.543 491.95,554.52C492.65,553.873 493.173,553.443 493.52,553.23C494.26,552.77 494.323,552.897 493.71,553.61C486.56,561.95 472.71,566.68 462.87,559.25C459.06,556.37 455.07,554.05 451.86,550.44C451.62,550.167 451.5,549.85 451.5,549.49L451.5,548.26C451.5,548.257 451.5,548.253 451.5,548.25C451.5,548.184 451.554,548.13 451.62,548.13C451.682,548.13 451.735,548.178 451.74,548.24C451.773,548.4 451.817,548.517 451.87,548.59C451.918,548.674 452.008,548.726 452.105,548.726C452.254,548.726 452.376,548.604 452.376,548.455C452.376,548.408 452.364,548.361 452.34,548.32L448.94,541.58C449.293,541.04 449.373,540.44 449.18,539.78C457.533,549.573 468.247,553.94 481.32,552.88C492.49,551.98 505.83,542.19 499.96,529.64Z" style="fill:rgb(31,41,55);fill-rule:nonzero;stroke:rgb(31,41,55);stroke-width:1.54px;"/>
                </g>
                <g transform="matrix(-0.70249,0,0,0.587298,1205.6,1157.19)">
                    <path d="M523.75,533L529.41,533.54C532.07,534.78 533.92,536.687 534.96,539.26C540.14,551.82 519.78,559.2 514.91,546.06C514.017,542.26 514.763,539.037 517.15,536.39L520.55,533.71L523.75,533Z" style="fill:rgb(31,41,55);fill-rule:nonzero;stroke:rgb(31,41,55);stroke-width:1.54px;"/>
                </g>
                <g transform="matrix(1.36804,0,0,1.36804,-929.584,-876.778)">
                    <g transform="matrix(82.1237,0,0,82.1237,1913,1691.87)">
                    </g>
                    <text x="1400.93px" y="1691.87px" style="font-family:'Arial-Black', 'Arial Black', sans-serif;font-weight:900;font-size:82.124px;fill:rgb(5,150,105);">J<tspan x="1453.58px 1506.95px 1557.12px " y="1691.87px 1691.87px 1691.87px ">oyf</tspan>ul Mind</text>
                </g>
                <g transform="matrix(1.71648,0,0,1.71648,-1452.49,-1702.33)">
                    <g transform="matrix(65.4527,0,0,65.4527,1576.36,1904.17)">
                    </g>
                    <text x="1420.05px" y="1904.17px" style="font-family:'Arial-Black', 'Arial Black', sans-serif;font-weight:900;font-size:65.453px;fill:rgb(31,41,55);">TMS</text>
                </g>
                <g transform="matrix(-0.430868,-0.0972929,-0.0972929,0.430868,1116.76,1252.31)">
                    <path d="M406.065,627.045C387.555,635.695 425.97,585.84 405.28,582.92C386.42,580.247 370.82,571.45 358.48,556.53C326.2,517.49 340,467.77 367.41,430.93C392.95,396.61 431.81,366.89 474.31,357.83C488.017,354.91 500.95,357.02 513.11,364.16C513.378,364.319 513.716,364.311 513.98,364.14C536.65,349.56 563.31,356.05 580.22,375.9C580.426,376.138 580.736,376.261 581.05,376.23C604.79,373.95 624.12,389.36 630.79,411.52C630.883,411.847 631.097,412.047 631.43,412.12C663.08,419.39 674.85,449.49 667.3,478.94C667.213,479.28 667.317,479.543 667.61,479.73C694.52,497.3 692.59,538.77 665.82,555.31C665.533,555.49 665.403,555.747 665.43,556.08C668.18,597.33 625.62,616.51 592.45,596.6C592.18,596.435 591.84,596.431 591.57,596.59C571.47,608.59 547.15,604.22 533.17,585.31C531.883,583.57 530.257,580.87 528.29,577.21C528.156,576.949 527.917,576.753 527.63,576.67C477.94,562.29 444.07,597.95 463.56,571.86C464.013,571.253 406.752,626.725 406.065,627.045ZM533.72,380.99C546.19,386.52 554.66,391.09 558.42,405.33C558.507,405.683 558.727,405.813 559.08,405.72C568.127,403.247 576.63,403.877 584.59,407.61C599.64,414.67 603.5,430.79 602.21,446.09C602.165,446.638 602.515,447.144 603.04,447.29C611.467,449.697 617.89,454.67 622.31,462.21C622.453,462.463 622.674,462.663 622.94,462.78C626.13,464.14 628.63,461.03 627.54,458.5C624.8,452.15 618.49,444.03 611.21,441.6C610.919,441.504 610.723,441.227 610.73,440.92C611.13,426.08 607.15,413.7 595.58,404.19C586.58,396.79 576.227,393.773 564.52,395.14C564.187,395.18 563.933,395.057 563.76,394.77C558.127,385.41 550.193,378.933 539.96,375.34C538.26,374.74 536.943,374.473 536.01,374.54C532.56,374.78 530.33,379.49 533.72,380.99ZM410.19,434.06C415.03,435.88 415.48,427.87 416.82,424.75C421.88,413 437.23,409.53 448.6,410.55C448.927,410.577 449.123,410.43 449.19,410.11C451.19,399.823 456.703,392.143 465.73,387.07C468.15,385.71 468.13,382.37 465.7,381.11C463.53,379.98 459.15,382 457.1,383.13C449.54,387.277 444.627,393.473 442.36,401.72C442.267,402.06 442.04,402.237 441.68,402.25C424.58,402.66 409.58,409.31 407.85,428.33C407.66,430.45 408.17,433.31 410.19,434.06ZM470.67,425.96C470.18,425.8 469.81,425.32 469.32,425.17C460.433,422.35 451.56,422.267 442.7,424.92C436.09,426.89 438.98,433.72 445.01,432.8C458.98,430.67 471.25,434.44 479.06,446.43C479.257,446.738 479.609,446.918 479.98,446.9C484.25,446.64 482.82,441.29 482.23,438.81C478.02,421.07 495,404.8 512.46,405.98C519.85,406.48 525.27,409.62 532.01,414.01C532.291,414.193 532.617,414.29 532.95,414.29C537.11,414.26 538.72,410.86 536.37,407.49C535.27,405.91 533.903,404.567 532.27,403.46C520.37,395.37 507.99,392.2 494.25,397.72C481.59,402.807 473.93,412.103 471.27,425.61C471.203,425.95 471.003,426.067 470.67,425.96ZM560.09,424.55C579.58,432.49 586.63,442.41 581.58,464.29C580.79,467.73 583.57,470.83 586.99,468.98C590.75,466.93 592.08,455.98 592.17,452.03C592.51,437.33 584.59,425.86 571.02,419.97C567.67,418.52 557.06,414.78 558.9,423.14C559.044,423.778 559.489,424.306 560.09,424.55ZM509.9,427.02C504.27,427.91 504.19,435.21 509.72,436C524.227,438.073 532.41,446.343 534.27,460.81C534.31,461.15 534.48,461.24 534.78,461.08C542.993,456.72 551.527,455.89 560.38,458.59C564.63,459.88 568.58,456.89 565.41,452.82C561.71,448.08 550.08,447.74 544.52,448.92C544.147,449 543.903,448.857 543.79,448.49C538.95,433.45 525.39,424.57 509.9,427.02ZM643.95,468.91C643.4,472.61 649.53,473.23 650.65,467.96C653.6,454.09 647.66,440.55 636.72,432.02C633.57,429.56 630.29,430.53 629.92,434.7C629.895,435.025 630.003,435.344 630.22,435.58C639.76,445.88 646.22,453.81 643.95,468.91ZM378.91,517.56C383.08,518.52 384.46,515.06 384.79,511.36C387.45,482.31 414.1,465.38 441.94,467.26C445.987,467.533 450.013,467.99 454.02,468.63C458.42,469.34 461.24,464.58 459.3,461.19C457.29,457.67 448.37,456.49 444.52,455.99C410.94,451.61 378.1,471.11 374.78,506.66C374.4,510.69 373.52,516.31 378.91,517.56ZM484.69,505.44C476.51,503.353 468.467,500.873 460.56,498C441.44,491.06 415.33,496.35 408.01,517.73C407.59,518.95 407.78,520.5 407.74,521.81C407.734,522.147 407.839,522.478 408.04,522.75C413.27,530.05 417.9,519.94 420.57,517.07C431.22,505.66 442.63,505.68 456.49,510.03C466.37,513.13 474.96,516.37 485.49,517.05C490.94,517.41 502.18,514.9 502.83,508.04C502.856,507.717 502.743,507.4 502.52,507.17C490.72,495.15 496.65,476.15 508.03,466.23C513.39,461.56 507.59,454.82 501.19,459.47C485,471.24 484.55,485.65 485.33,504.92C485.35,505.38 485.137,505.553 484.69,505.44ZM388.3,548C383.57,554 392.44,557.22 396.46,558.1C416.253,562.427 434.407,558.967 450.92,547.72C451.207,547.52 451.507,547.493 451.82,547.64C479.56,560.55 502.45,554.98 525.4,535.77C525.61,535.588 525.925,535.576 526.16,535.74L532.82,540.48C533.065,540.656 533.214,540.938 533.22,541.24C533.4,558.3 539.25,570.89 555.27,578.51C557.87,579.74 564.41,582.18 566.25,578.77C567.74,576.02 566.42,573.9 563.64,572.74C550.74,567.34 542.07,553.79 545.54,539.61C545.615,539.322 545.54,539.014 545.34,538.79C537.71,530.05 531.78,523.03 531.71,510.91C531.64,495.95 543.57,487.11 558.36,489.47C561.39,489.95 565.96,492.56 568.72,492.24C574.57,491.56 572.75,484.66 569.04,482.24C550.1,469.86 527.37,479.26 518.39,498.87C518.249,499.171 518.231,499.516 518.34,499.83C519.587,503.417 520.343,506.037 520.61,507.69C524.53,531.89 495.8,543.14 476.98,541.67C468.22,540.98 459.06,537.79 451.14,533.58C450.249,533.103 449.158,533.181 448.34,533.78C432.62,545.22 414.4,549.66 395.2,546.06C392.087,545.473 389.787,546.12 388.3,548ZM561.44,518.81C569.18,524.35 577.443,527.17 586.23,527.27C607.76,527.51 628.83,513.33 626.89,489.54C626.39,483.53 617.49,482.77 617,488.01C614.5,514.64 584.26,521.28 564.71,508.55C562.24,506.94 559.97,506.82 557.96,508.95C554.65,512.47 558.47,516.69 561.44,518.81ZM610.3,582.36C610.491,582.472 610.702,582.544 610.92,582.57C619.12,583.6 626.74,580.86 632.85,575.16C642.743,565.933 645.85,554.13 642.17,539.75C642.083,539.43 642.167,539.163 642.42,538.95C650.373,532.37 654.263,523.873 654.09,513.46C654.01,508.89 649.56,503.68 645.22,508.5C645.013,508.727 644.91,508.993 644.91,509.3C644.943,521 639.917,529.68 629.83,535.34C629.672,535.431 629.574,535.6 629.574,535.782C629.574,535.889 629.608,535.993 629.67,536.08C639.32,549.56 634.49,567.06 619.04,573.31C617.547,573.917 615.007,574.56 611.42,575.24C607.27,576.03 606.79,580.37 610.3,582.36ZM570.62,555.14C583.57,566.52 603.09,567.14 615.03,553.77C616.123,552.543 616.163,551.247 615.15,549.88C612.06,545.71 607.83,550.24 604.62,551.76C595.053,556.293 585.91,555.373 577.19,549C574.51,547.05 570.38,542.45 567.07,544.81C562.14,548.33 567.86,552.71 570.62,555.14Z" style="fill:white;fill-rule:nonzero;stroke:rgb(31,41,55);stroke-width:2.26px;"/>
                </g>
            </g>
        </g>
    </g>
</svg>
