<svg width="193" height="63" viewBox="0 0 193 63" fill="none" xmlns="http://www.w3.org/2000/svg">
<g clip-path="url(#clip0_4530_37736)">
<path d="M19.998 26.6182C21.6306 26.6182 32.1064 31.2511 32.1064 48.1475C32.1064 56.187 29.3854 62.8638 27.8889 62.8638C27.2086 62.8638 26.9365 62.1825 26.9365 60.8199C26.9365 57.8221 28.0249 55.2332 28.0249 48.8288C28.0249 36.5653 22.9911 31.6599 20.8143 28.7984C20.134 27.9808 19.5898 27.4357 19.5898 26.8907C19.5898 26.7544 19.7259 26.6182 19.998 26.6182M46.3916 27.027C46.3916 27.572 45.8474 27.9808 45.1672 28.9346C42.9904 31.6599 37.9565 36.7015 37.9565 48.9651C37.9565 55.3694 39.0449 57.9584 39.0449 60.9561C39.0449 62.3188 38.7728 63.0001 38.0926 63.0001C36.46 63.0001 33.8751 56.3232 33.8751 48.2838C33.8751 31.5236 44.3509 26.7544 45.9835 26.7544C46.2556 26.6182 46.3916 26.7544 46.3916 27.027" fill="#818181"/>
<path d="M29.2578 29.8884C29.2578 32.0685 31.0265 33.84 33.0672 33.84C35.244 33.84 36.8766 32.0685 36.8766 29.8884C36.8766 27.7082 35.1079 25.9368 33.0672 25.9368C30.8904 25.9368 29.2578 27.7082 29.2578 29.8884Z" fill="#818181"/>
<path d="M13.1968 23.6204C11.1561 22.6666 9.65952 20.8952 9.52347 19.1237C11.02 18.1699 13.3329 18.0337 15.3736 18.9875C17.4144 19.9413 17.9585 21.5765 17.9585 22.9391C16.7341 23.8929 15.2376 24.5742 13.1968 23.6204ZM18.9109 12.992C17.6864 10.948 17.2783 8.49532 18.0946 6.72392C19.9993 6.72392 22.1761 7.95028 23.4005 9.9942C24.761 12.0381 24.2168 13.8095 23.4005 15.1722C22.04 15.3084 20.2714 15.0359 18.9109 12.992M21.904 23.6204C20.2714 22.2578 19.4551 20.2138 19.7272 18.4424C21.3598 17.8974 23.5366 18.4424 25.0331 19.8051C26.6657 21.1677 26.6657 22.8028 26.3936 24.1654C25.0331 24.7105 23.5366 24.983 21.904 23.6204ZM26.6657 18.4424C25.9855 16.2622 26.3936 13.6733 27.6181 12.3107C29.3867 12.8557 31.1554 14.6271 31.8356 16.8073C32.5159 19.1237 31.5635 20.6226 30.4751 21.7127C28.9786 21.5765 27.482 20.7589 26.6657 18.4424ZM18.3667 34.7939C16.7341 35.0664 15.1015 34.6576 14.2852 33.7038C14.6934 32.4774 16.1899 31.3873 17.6865 31.1148C19.319 30.8423 20.2714 31.5236 20.9516 32.3411C20.6795 33.295 19.9993 34.3851 18.3667 34.7939ZM14.1492 30.0247C12.3805 29.8884 10.7479 28.7983 10.0677 27.4357C11.02 26.2094 12.7887 25.6643 14.5573 25.8006C16.462 26.0731 17.2783 27.1632 17.5504 28.2533C17.1423 29.3434 16.0539 30.2972 14.1492 30.0247M14.0131 16.5348C12.6526 15.3084 11.8363 13.537 11.9724 12.0381C13.4689 11.6293 15.3736 12.0381 16.7341 13.2645C18.2306 14.4908 18.2306 15.9897 17.9585 17.0798C16.8702 17.4886 15.5097 17.7611 14.0131 16.5348ZM23.6726 6.86018C23.1284 5.08878 23.4005 2.90859 24.3529 1.81849C25.8494 2.22728 27.2099 3.72616 27.8902 5.63382C28.4344 7.54149 27.7541 8.90411 26.8018 9.72168C25.5773 9.44916 24.2168 8.90411 23.6726 6.86018ZM0 55.0969C0.13605 55.2331 0.272099 55.0969 0.408149 55.0969C6.12223 53.0529 14.4213 50.6002 26.1215 49.7827C26.1215 49.6464 26.2576 49.1014 26.2576 48.6926C26.2576 47.875 26.1215 46.9212 26.1215 46.7849C14.1492 47.875 5.85013 51.4178 0.408149 54.8244C0.13605 55.0969 0 55.0969 0 55.0969M29.9309 6.58766C29.9309 3.86242 31.1554 1.27344 33.0601 0.18335C34.8287 1.40971 36.1892 3.99868 36.1892 6.58766C36.1892 9.44916 34.6927 10.8118 33.0601 11.4931C31.4275 10.8118 29.9309 9.44916 29.9309 6.58766M48.1616 22.9391C48.1616 21.5765 48.7058 19.9413 50.7465 18.9875C52.7873 18.0337 55.1001 18.1699 56.5966 19.1237C56.3245 20.8952 54.828 22.8028 52.9233 23.6204C50.7465 24.5742 49.25 23.8929 48.1616 22.9391M42.5835 15.1722C41.7672 13.8095 41.3591 12.1744 42.5835 9.9942C43.808 7.95028 45.9848 6.72392 47.8895 6.72392C48.7058 8.49532 48.4337 10.948 47.0732 12.992C45.8487 15.0359 44.0801 15.3084 42.5835 15.1722M39.7265 24.1654C39.3183 22.8028 39.4544 21.3039 41.087 19.8051C42.7196 18.4424 44.8964 17.8974 46.3929 18.4424C46.665 20.0776 45.7127 22.2578 44.2161 23.6204C42.4475 24.983 40.9509 24.7105 39.7265 24.1654ZM35.509 21.7127C34.4206 20.7589 33.4682 19.1237 34.1485 16.8073C34.8287 14.6271 36.4613 12.7194 38.366 12.3107C39.5904 13.8095 39.9986 16.2622 39.3183 18.4424C38.6381 20.7589 37.0055 21.5765 35.509 21.7127M45.1685 32.3411C45.7127 31.5236 46.8011 30.706 48.4337 31.1148C50.0663 31.3873 51.4268 32.4774 51.8349 33.7038C50.8826 34.6576 49.25 35.0664 47.7534 34.7939C45.9848 34.3851 45.4406 33.295 45.1685 32.3411ZM48.2976 28.2533C48.7058 27.1632 49.5221 25.9368 51.2907 25.8006C53.0594 25.6643 54.964 26.2094 55.7803 27.4357C55.1001 28.7983 53.4675 29.7522 51.6989 30.0247C49.9302 30.2972 48.9779 29.3434 48.2976 28.2533M48.0255 17.0798C47.7534 15.9897 47.7534 14.4908 49.25 13.2645C50.6105 12.0381 52.5152 11.6293 54.0117 12.0381C54.2838 13.537 53.4675 15.3084 51.971 16.5348C50.4744 17.7611 49.1139 17.4886 48.0255 17.0798M39.1823 9.58542C38.2299 8.76785 37.5497 7.54149 38.0939 5.49756C38.6381 3.5899 40.1346 2.09102 41.6312 1.68223C42.5835 2.90859 42.9917 4.95251 42.4475 6.86018C41.7672 8.90411 40.4067 9.44916 39.1823 9.58542M65.712 54.9606C60.27 51.5541 51.971 48.0113 39.9986 46.9212C39.9986 47.0574 39.8625 48.0113 39.8625 48.8288C39.8625 49.2376 39.9986 49.7827 39.9986 49.9189C51.6989 50.7365 59.9979 53.1892 65.712 55.2331C65.848 55.2331 65.9841 55.3694 65.9841 55.3694C65.9841 55.3694 66.1201 55.3694 66.1201 55.2331C66.0294 55.1423 65.8934 55.0515 65.712 54.9606" fill="#818181"/>
<path d="M96.734 18.5786C96.734 20.35 98.2306 21.8489 99.9992 21.8489C101.768 21.8489 103.264 20.35 103.264 18.5786C103.264 16.8072 101.768 15.3083 99.9992 15.3083C98.0945 15.3083 96.734 16.8072 96.734 18.5786ZM122.311 35.7476C122.311 40.9256 120.271 43.1058 117.414 43.1058C114.557 43.1058 112.924 40.6531 112.924 36.2927C112.924 31.9323 115.509 28.117 120.135 28.117C121.087 28.117 121.767 28.2532 122.311 28.3895V35.7476ZM122.583 44.1959V45.831C122.583 50.4639 119.726 52.2353 116.325 52.2353C113.196 52.2353 110.883 51.2815 110.203 51.009V55.5056C110.747 55.6419 113.332 56.4594 117.005 56.4594C123.4 56.4594 127.753 53.7342 127.753 44.6046V24.8467C126.937 24.5742 123.944 23.8928 120.407 23.8928C111.427 23.8928 107.482 30.0246 107.482 36.5652C107.482 42.697 110.475 47.3299 116.325 47.3299C120.135 47.4661 121.903 45.0134 122.583 44.1959V44.1959ZM91.9723 41.3344C90.4757 42.0157 88.1629 42.4245 85.9861 42.4245C79.8639 42.4245 75.3742 38.0641 75.3742 31.251C75.3742 24.4379 79.8639 20.0775 85.9861 20.0775C88.9792 20.0775 91.156 20.7588 91.9723 21.1676V16.5347C90.6118 15.9897 88.435 15.5809 85.4419 15.5809C75.9184 15.5809 69.6602 22.2577 69.6602 31.3872C69.6602 40.5168 75.5103 47.1936 85.4419 47.1936C88.2989 47.1936 90.6118 46.7848 91.9723 46.2398V41.3344ZM172.378 35.7476C172.378 40.9256 170.337 43.1058 167.48 43.1058C164.623 43.1058 162.99 40.6531 162.99 36.2927C162.99 31.9323 165.575 28.117 170.201 28.117C171.153 28.117 171.833 28.2532 172.378 28.3895V35.7476ZM178.364 46.9211C178.228 45.6947 177.684 42.2882 177.684 39.563V24.8467C176.867 24.5742 173.874 23.8928 170.337 23.8928C161.358 23.8928 157.412 30.0246 157.412 36.5652C157.412 42.697 160.405 47.3299 166.255 47.3299C170.473 47.3299 172.378 44.6046 173.058 43.1058H173.194C173.194 43.7871 173.466 46.2398 173.466 46.7848H178.364V46.9211V46.9211ZM102.584 24.4379H97.2782V46.9211H102.584V24.4379V24.4379ZM133.603 46.9211V31.3872C133.603 29.3433 133.467 25.2555 133.331 24.4379H138.093L138.365 27.5719H138.501C139.045 26.7543 140.814 23.8928 145.032 23.8928C150.065 23.8928 152.786 27.5719 152.786 32.3411V46.9211H147.481V33.2949C147.481 30.4334 145.848 28.2532 143.263 28.2532C140.406 28.2532 139.045 30.5697 139.045 33.2949V46.9211H133.603Z" fill="#818181"/>
<path d="M188.297 39.5633C188.025 39.427 187.616 39.2908 187.072 39.2908H186.12V41.4709H187.072C187.48 41.4709 187.889 41.471 188.025 41.3347C188.433 41.1984 188.569 40.9259 188.569 40.3809C188.705 39.9721 188.569 39.6995 188.297 39.5633ZM187.208 38.6095C187.889 38.6095 188.433 38.7457 188.841 38.882C189.385 39.1545 189.793 39.6995 189.793 40.3809C189.793 40.9259 189.657 41.3347 189.249 41.6072C189.113 41.7435 188.705 41.8797 188.433 41.8797C188.841 42.016 189.249 42.1523 189.385 42.4248C189.657 42.6973 189.657 43.1061 189.657 43.3786V44.605H188.705V43.7874C188.705 43.1061 188.569 42.6973 188.161 42.4248C187.889 42.2885 187.616 42.2885 187.072 42.2885H186.256V44.605H185.168V38.6095H187.208V38.6095ZM184.079 38.3369C183.127 39.2908 182.719 40.3809 182.719 41.6072C182.719 42.9698 183.127 44.0599 184.079 44.8775C185.031 45.8313 186.12 46.2401 187.344 46.2401C188.569 46.2401 189.657 45.8313 190.61 44.8775C191.562 43.9237 191.97 42.8336 191.97 41.6072C191.97 40.3809 191.562 39.1545 190.61 38.3369C189.657 37.3831 188.569 36.9743 187.344 36.9743C185.984 36.9743 184.895 37.3831 184.079 38.3369ZM191.018 45.4225C189.929 46.5126 188.705 47.0577 187.208 47.0577C185.712 47.0577 184.487 46.5126 183.399 45.4225C182.311 44.3325 181.902 43.1061 181.902 41.6072C181.902 40.1083 182.447 38.882 183.535 37.7919C184.623 36.7018 185.848 36.1567 187.344 36.1567C188.841 36.1567 190.065 36.7018 191.154 37.7919C192.242 38.882 192.786 40.1083 192.786 41.6072C192.65 43.1061 192.106 44.4687 191.018 45.4225" fill="#818181"/>
</g>
<defs>
<clipPath id="clip0_4530_37736">
<rect width="192.782" height="62.8167" fill="white" transform="translate(0 0.18335)"/>
</clipPath>
</defs>
</svg>
