<svg width="325" height="63" viewBox="0 0 325 63" fill="none" xmlns="http://www.w3.org/2000/svg">
<g clip-path="url(#clip0_4530_37787)">
<path d="M148.181 41.1798C163.335 41.1798 171.113 36.4337 171.113 26.226C171.113 17.4142 164.698 11.5513 150.767 11.5513C133.883 11.5513 127.136 19.0719 125.598 32.5425C123.133 32.3855 120.442 32.3332 116.771 32.3157C116.771 31.5828 116.789 30.85 116.789 30.0997C116.789 16.437 111.125 11.4989 96.0237 11.4989C88.6476 11.4989 82.1454 12.5982 78.1777 14.2036L78.772 25.1092C82.2328 23.2771 87.3891 21.5147 92.2832 21.5147C99.1873 21.5147 101.285 24.3589 101.285 31.1815V32.1936C100.795 32.1761 99.5719 32.1761 98.9077 32.1761C81.7085 32.1761 73.7381 37.3759 73.7381 47.0078C73.7381 56.6397 78.6846 62.7818 92.7901 62.7818C100.219 62.7818 107.56 61.7349 117.016 61.7349C116.317 57.7565 116.299 52.0332 116.299 48.1071C116.299 46.0307 116.404 43.5529 116.509 40.7436C120.547 40.7785 123.518 40.8832 125.476 40.9705C126.944 56.9189 135.229 62.8167 152.48 62.8167C158.86 62.8167 165.31 61.7349 168.683 60.1644L168.089 49.2588C164.733 51.1956 160.066 52.7835 154.945 52.7835C146.468 52.7835 141.871 48.3689 141.871 41.3892V41.0577C143.391 41.1275 146.415 41.1798 148.181 41.1798V41.1798ZM96.4606 53.2546C91.217 53.2546 88.9797 51.5097 88.9797 47.13C88.9797 42.7503 91.8287 40.5168 98.9951 40.5168C99.6593 40.5168 100.463 40.4993 101.04 40.5517C101.005 44.6348 100.918 49.3984 101.145 52.7137C99.904 53.0452 98.0687 53.2546 96.4606 53.2546V53.2546ZM141.801 32.7519V32.5076C141.801 25.6676 143.968 20.6423 150.261 20.6423C153.826 20.6423 156.116 22.5093 156.116 25.8944C156.116 30.658 152.935 32.8741 146.328 32.8741C144.737 32.8741 143.042 32.8566 141.801 32.7519ZM202.103 51.8936C197.034 51.8936 195.548 49.8869 195.548 42.5409V23.5737H205.546V13.0345H195.706C195.706 9.30036 196.003 3.78645 196.317 0H187.054C185.83 9.21312 183.156 13.9593 174.731 15.3552C174.696 17.833 174.836 21.2181 174.731 23.5737H180.342C180.254 28.8084 180.097 38.3705 180.097 47.0776C180.097 58.1927 185.865 62.7469 196.702 62.7469C201.98 62.7469 205.861 61.9792 207.154 61.6127L206.49 50.7768C205.546 51.4225 203.676 51.8936 202.103 51.8936V51.8936ZM307.57 30.0997C307.57 16.437 301.907 11.4989 286.823 11.4989C279.429 11.4989 272.945 12.5982 268.977 14.2036L269.571 25.1092C273.032 23.2771 278.171 21.5147 283.082 21.5147C289.987 21.5147 292.084 24.3589 292.084 31.1815V32.1936C291.595 32.1761 290.389 32.1761 289.724 32.1761C272.508 32.1761 264.555 37.3759 264.555 47.0078C264.555 56.6397 269.501 62.7818 283.607 62.7818C291.035 62.7818 298.376 61.7349 307.815 61.7349C307.133 57.7565 307.116 52.0332 307.116 48.1071C307.116 43.6576 307.57 37.4108 307.57 30.0997V30.0997ZM287.26 53.2546C281.999 53.2546 279.779 51.5097 279.779 47.13C279.779 42.7503 282.628 40.5168 289.794 40.5168C290.441 40.5168 291.245 40.4993 291.822 40.5517C291.822 44.6348 291.699 49.3984 291.944 52.7137C290.703 53.0452 288.85 53.2546 287.26 53.2546V53.2546ZM258.245 39.0162C258.245 34.8982 258.332 29.4192 258.332 29.4192C258.332 17.0827 252.914 11.5513 237.585 11.5513C228.985 11.5513 222.85 13.0519 213.254 13.0519C213.796 21.7067 213.814 32.403 213.779 39.0336C213.814 45.769 213.551 57.8437 213.254 61.7349H229.719C229.335 57.8263 229.02 46.6065 229.055 39.0336C229.055 34.7237 229.108 29.5064 229.282 22.5093C230.925 21.9509 233.005 21.5322 235.26 21.5322C241.028 21.5322 242.881 24.2368 242.881 31.6526C242.881 31.6526 242.968 36.3115 242.968 39.0511C242.968 45.7864 242.741 57.8612 242.444 61.7523H258.909C258.525 57.8088 258.192 46.5891 258.245 39.0162ZM54.3016 9.33526C52.7635 7.79974 50.7534 7.03198 48.7608 7.03198C46.7683 7.03198 44.7232 7.79974 43.1851 9.35271L34.0611 18.4786L24.9197 9.35271C23.3641 7.78229 21.354 7.01453 19.3439 7.01453C17.3339 7.01453 15.3238 7.78229 13.7857 9.31781L2.6691 20.4154C-0.3897 23.469 -0.3897 28.442 2.6691 31.513L34.0262 62.8167L65.3832 31.513C68.4595 28.4595 68.442 23.4865 65.3832 20.4154L54.2842 9.33526H54.3016ZM320.644 14.3431C320.644 12.6855 319.631 11.9875 317.656 11.9875H314.544V20.1537H315.89V16.6639H317.149L319.264 20.1537H320.784L318.495 16.5592C319.736 16.437 320.644 15.8263 320.644 14.3431ZM315.89 15.5297V13.1392H317.516C318.32 13.1392 319.299 13.2613 319.299 14.2385C319.299 15.425 318.407 15.5122 317.411 15.5122H315.89V15.5297ZM317.358 8.58495C313.443 8.58495 310.087 11.5338 310.087 15.9659C310.087 20.398 313.111 23.3469 317.358 23.3469C321.239 23.3469 324.595 20.4154 324.595 15.9659C324.595 11.5164 321.239 8.58495 317.358 8.58495ZM317.358 22.0556C313.845 22.0556 311.66 19.3161 311.66 15.9659C311.66 12.3714 314.142 9.87618 317.358 9.87618C320.575 9.87618 323.004 12.3889 323.004 15.9659C323.004 19.543 320.522 22.0556 317.358 22.0556Z" fill="#818181"/>
</g>
<defs>
<clipPath id="clip0_4530_37787">
<rect width="324.215" height="62.8167" fill="white" transform="translate(0.386719)"/>
</clipPath>
</defs>
</svg>
